<?xml version="1.0" encoding="utf-8"?>
<!-- Generator: Adobe Illustrator 27.5.0, SVG Export Plug-In . SVG Version: 6.00 Build 0)  -->
<svg version="1.1" xmlns="http://www.w3.org/2000/svg" xmlns:xlink="http://www.w3.org/1999/xlink" x="0px" y="0px"
	 viewBox="0 0 3710 3710" style="enable-background:new 0 0 3710 3710;" xml:space="preserve">
<g id="Background">
	<g>
		<g>
			<rect style="fill:#FFFFFF;" width="3710" height="3710"/>
		</g>
	</g>
</g>
<g id="Illustration">
	<g>
		<linearGradient id="SVGID_1_" gradientUnits="userSpaceOnUse" x1="3580.3218" y1="3984.8167" x2="1158.9237" y2="977.5919">
			<stop  offset="0" style="stop-color:#DAE3FE"/>
			<stop  offset="1" style="stop-color:#E9EFFD"/>
		</linearGradient>
		<path style="fill:url(#SVGID_1_);" d="M2894.686,2776.603c-49.757,63.76-180.069,198.031-223.083,225.894
			c-382.542,247.796-942.595,168.994-1065.685,143.994c-181.766-36.917-602.068-5.856-856.087-304.577
			c-384.309-451.94-348.398-1212.082-50.302-1682.095c54.527-85.974,388.531-598.077,973.94-674.6
			c354.283-46.311,885.133,8.374,1184.202,258.934C3485.444,1270.101,3216.938,2363.665,2894.686,2776.603z"/>
		<g>
			<g>
				<path style="fill:#BDD0FB;" d="M1277.056,906.849c0.145-12.069,16.409-15.93,21.917-5.19
					c53.244,103.836,201.387,371.738,370.779,495.474c275.809,201.47,507.46,572.512,405.162,809.815
					C2074.913,2206.948,1261.268,2221.858,1277.056,906.849z"/>
				<path style="opacity:0.43;fill:#FFFFFF;" d="M1330.678,1059.548c1.01,3.542,2.124,6.385,3.189,9.495l3.337,9.1l6.87,18.106
					c4.661,12.035,9.505,23.995,14.35,35.955c9.775,23.883,19.846,47.642,30.135,71.31c20.665,47.296,42.608,94.026,65.25,140.417
					c22.578,46.427,46.455,92.222,71.292,137.492c24.875,45.246,50.401,90.158,77.39,134.206
					c53.796,88.185,112.44,173.529,176.878,254.386c32.638,40.08,66.34,79.33,102.248,116.54
					c36.161,36.938,73.913,72.357,114.077,104.865c0.873,0.707,2.154,0.572,2.861-0.302c0.689-0.851,0.578-2.091-0.238-2.808
					l-0.021-0.018c-38.73-33.919-75.567-69.857-110.563-107.526c-35.106-37.577-67.994-77.161-99.804-117.541
					c-31.796-40.41-61.959-82.094-91.161-124.427c-29.192-42.356-56.615-85.9-83.787-129.585
					c-53.985-87.627-103.268-178.103-150.021-269.841c-23.281-45.924-45.638-92.323-67.167-139.108
					c-10.802-23.375-21.39-46.852-31.685-70.457l-15.163-35.522l-7.396-17.831l-3.595-8.947c-1.13-2.949-2.395-6.101-3.278-8.722
					l-0.146-0.433c-0.355-1.056-1.499-1.624-2.555-1.268C1330.951,1057.428,1330.387,1058.52,1330.678,1059.548z"/>
			</g>
			<g>
				<path style="fill:#91B3FA;" d="M1680.725,536.285c3.425-11.028,19.394-10.133,21.514,1.219
					c20.501,109.748,83.271,395.842,204.856,555.524c197.969,259.999,309.184,663.459,150.635,853.17
					C2057.731,1946.198,1307.51,1737.908,1680.725,536.285z"/>
				<path style="opacity:0.43;fill:#FFFFFF;" d="M1688.208,690.943c-0.041,3.531,0.204,6.439,0.331,9.582l0.576,9.256l1.355,18.479
					c0.988,12.31,2.165,24.599,3.343,36.888c2.443,24.569,5.192,49.107,8.166,73.619c6.04,49.013,13.411,97.855,21.512,146.577
					c8.032,48.737,17.433,97.249,27.859,145.541c10.467,48.28,21.621,96.433,34.354,144.193
					c25.276,95.55,55.782,189.814,92.824,281.545c19.004,45.659,39.212,90.846,61.997,134.764
					c23.097,43.736,48.063,86.513,76.043,127.273c0.62,0.902,1.854,1.132,2.756,0.512c0.88-0.604,1.12-1.792,0.558-2.687
					l-0.015-0.023c-26.249-41.68-50.217-84.688-72.023-128.783c-21.935-44.038-41.289-89.311-59.436-135.019
					c-18.129-45.732-34.417-92.184-49.644-138.972c-15.213-46.805-28.478-94.218-41.481-141.689
					c-25.608-95.081-46.116-191.494-63.979-288.372c-8.828-48.463-16.678-97.112-23.667-145.886
					c-3.534-24.382-6.845-48.798-9.851-73.253l-4.223-36.71l-1.924-18.369l-0.86-9.185c-0.233-3.011-0.534-6.25-0.629-8.886
					l-0.016-0.445c-0.039-1.084-0.95-1.932-2.035-1.893C1689.05,689.04,1688.222,689.902,1688.208,690.943z"/>
			</g>
		</g>
		<g>
			<g>
				
					<ellipse transform="matrix(0.7071 -0.7071 0.7071 0.7071 -203.2492 2039.4272)" style="fill:#FFFFFF;" cx="2360.182" cy="1265.057" rx="599.087" ry="599.087"/>
				<g>
					
						<linearGradient id="SVGID_00000135693331029786096460000017476099093576576698_" gradientUnits="userSpaceOnUse" x1="3558.0371" y1="667.8652" x2="-1069.942" y2="2975.1492">
						<stop  offset="0" style="stop-color:#4F52FF"/>
						<stop  offset="1" style="stop-color:#4042E2"/>
					</linearGradient>
					
						<circle style="fill:url(#SVGID_00000135693331029786096460000017476099093576576698_);" cx="2360.182" cy="1265.057" r="511.298"/>
					<path style="fill:#FFFFFF;" d="M2360.181,1801.965c-296.05,0-536.906-240.854-536.906-536.908s240.856-536.908,536.906-536.908
						s536.906,240.854,536.906,536.908S2656.231,1801.965,2360.181,1801.965z M2360.181,753.759
						c-281.93,0-511.296,229.365-511.296,511.298c0,281.933,229.365,511.298,511.296,511.298
						c281.931,0,511.295-229.365,511.295-511.298C2871.477,983.124,2642.112,753.759,2360.181,753.759z"/>
				</g>
				<g>
					
						<linearGradient id="SVGID_00000067197304812585311010000016788923306958769844_" gradientUnits="userSpaceOnUse" x1="4035.0708" y1="107.0379" x2="57.6914" y2="2857">
						<stop  offset="0" style="stop-color:#4F52FF"/>
						<stop  offset="1" style="stop-color:#4042E2"/>
					</linearGradient>
					
						<circle style="fill:url(#SVGID_00000067197304812585311010000016788923306958769844_);" cx="2360.182" cy="1265.057" r="311.712"/>
					<path style="fill:#FFFFFF;" d="M2360.181,1602.38c-185.999,0-337.32-151.324-337.32-337.323s151.322-337.318,337.32-337.318
						c185.999,0,337.321,151.319,337.321,337.318S2546.18,1602.38,2360.181,1602.38z M2360.181,978.956
						c-157.758,0-286.103,128.343-286.103,286.101s128.345,286.106,286.103,286.106c157.758,0,286.104-128.348,286.104-286.106
						S2517.939,978.956,2360.181,978.956z"/>
				</g>
				<g>
					
						<linearGradient id="SVGID_00000110431354984744972170000000379477203026700467_" gradientUnits="userSpaceOnUse" x1="3070.4207" y1="-342.3289" x2="2688.1096" y2="522.9031">
						<stop  offset="0" style="stop-color:#4F52FF"/>
						<stop  offset="1" style="stop-color:#4042E2"/>
					</linearGradient>
					
						<circle style="fill:url(#SVGID_00000110431354984744972170000000379477203026700467_);" cx="2360.182" cy="1265.057" r="120.766"/>
					<path style="fill:#FFFFFF;" d="M2360.181,1411.433c-80.711,0-146.374-65.663-146.374-146.377
						c0-80.714,65.663-146.377,146.374-146.377c80.711,0,146.377,65.663,146.377,146.377
						C2506.558,1345.771,2440.893,1411.433,2360.181,1411.433z M2360.181,1169.897c-52.47,0-95.157,42.687-95.157,95.159
						c0,52.472,42.687,95.159,95.157,95.159c52.47,0,95.159-42.687,95.159-95.159
						C2455.341,1212.585,2412.651,1169.897,2360.181,1169.897z"/>
				</g>
			</g>
			<g>
				
					<linearGradient id="SVGID_00000045589148047394667050000001917939482039355554_" gradientUnits="userSpaceOnUse" x1="27.3694" y1="4808.0659" x2="-155.3054" y2="5550.1797" gradientTransform="matrix(-0.7071 -0.7071 0.7071 -0.7071 -1192.2574 4633.1733)">
					<stop  offset="0" style="stop-color:#09005D"/>
					<stop  offset="1" style="stop-color:#1A0F91"/>
				</linearGradient>
				<polygon style="fill:url(#SVGID_00000045589148047394667050000001917939482039355554_);" points="3086.451,536.905 
					3102.598,553.051 2491.185,1164.464 2475.039,1148.318 				"/>
				
					<linearGradient id="SVGID_00000047773096161626869750000008382116645469796480_" gradientUnits="userSpaceOnUse" x1="-128.3926" y1="4964.0566" x2="-184.2121" y2="5562.8521" gradientTransform="matrix(-0.7071 -0.7071 0.7071 -0.7071 -1192.2574 4633.1733)">
					<stop  offset="0" style="stop-color:#09005D"/>
					<stop  offset="1" style="stop-color:#1A0F91"/>
				</linearGradient>
				<path style="fill:url(#SVGID_00000047773096161626869750000008382116645469796480_);" d="M2486.475,1109.359
					c9.263-9.263,52.932,34.406,43.669,43.669l-161.966,127.331c-5.984,4.704-13.737-3.049-9.033-9.034L2486.475,1109.359z"/>
				<path style="fill:#91B3FA;" d="M3102.249,553.4l82.254,8.175l-112.919,112.919c-36.997,36.997-88.638,55.448-140.703,50.273l0,0
					L3102.249,553.4z"/>
				<path style="fill:#91B3FA;" d="M3086.102,537.254L3077.927,455l-112.919,112.919c-36.997,36.997-55.448,88.638-50.273,140.703
					l0,0L3086.102,537.254z"/>
			</g>
		</g>
		
			<linearGradient id="SVGID_00000085228647963421727530000008254727586996212106_" gradientUnits="userSpaceOnUse" x1="3580.7703" y1="1193.953" x2="534.073" y2="5249.355">
			<stop  offset="0" style="stop-color:#FF928E"/>
			<stop  offset="1" style="stop-color:#FE7062"/>
		</linearGradient>
		<path style="fill:url(#SVGID_00000085228647963421727530000008254727586996212106_);" d="M3232.355,3250.292H2065.842V1622.36
			c0-26.874,21.785-48.659,48.659-48.659h1086.884c26.874,0,48.659,21.785,48.659,48.659v1610.244
			C3250.044,3242.373,3242.125,3250.292,3232.355,3250.292z"/>
		<path style="fill:#91B3FA;" d="M2581.46,3255H1549.379V1961.631c0-26.874,21.785-48.659,48.659-48.659h934.763
			c26.874,0,48.659,21.785,48.659,48.659V3255z"/>
		
			<linearGradient id="SVGID_00000033336377686656482740000002912598651643436945_" gradientUnits="userSpaceOnUse" x1="3059.0088" y1="672.1258" x2="-88.4302" y2="4861.6226">
			<stop  offset="0" style="stop-color:#FF928E"/>
			<stop  offset="1" style="stop-color:#FE7062"/>
		</linearGradient>
		<path style="fill:url(#SVGID_00000033336377686656482740000002912598651643436945_);" d="M1861.4,3250.292H989.767
			c-9.769,0-17.688-7.919-17.688-17.688v-750.411c0-26.874,21.785-48.659,48.659-48.659h792.003
			c26.874,0,48.659,21.785,48.659,48.659V3250.292z"/>
		<path style="fill:#91B3FA;" d="M1349.278,3250.292H477.645c-9.769,0-17.688-7.919-17.688-17.688v-431.678
			c0-26.874,21.785-48.659,48.659-48.659h792.003c26.874,0,48.659,21.785,48.659,48.659V3250.292z"/>
		<g>
			
				<linearGradient id="SVGID_00000051349966802479642760000012789912905362517392_" gradientUnits="userSpaceOnUse" x1="2888.127" y1="986.962" x2="2876.9482" y2="1201.5935">
				<stop  offset="0" style="stop-color:#E1473D"/>
				<stop  offset="1" style="stop-color:#E9605A"/>
			</linearGradient>
			<polygon style="fill:url(#SVGID_00000051349966802479642760000012789912905362517392_);" points="2881.464,1525.429 
				2847.787,1525.429 2794.847,1369.701 2942.004,1360.764 			"/>
			
				<linearGradient id="SVGID_00000161601881461428789820000007258034316850045568_" gradientUnits="userSpaceOnUse" x1="2796.2163" y1="1629.2434" x2="2849.874" y2="1204.4524">
				<stop  offset="0" style="stop-color:#FF928E"/>
				<stop  offset="1" style="stop-color:#FE7062"/>
			</linearGradient>
			<path style="fill:url(#SVGID_00000161601881461428789820000007258034316850045568_);" d="M2705.271,1080.375
				c-0.166,13.144-0.166,270.491,130.473,312.282c130.64,41.792,189.648-175.951,184.965-331.025L2705.271,1080.375z"/>
			
				<linearGradient id="SVGID_00000124135588223760562280000005556236327846918078_" gradientUnits="userSpaceOnUse" x1="2890.6235" y1="1145.7587" x2="2877.2092" y2="1360.3889">
				<stop  offset="0" style="stop-color:#E1473D"/>
				<stop  offset="1" style="stop-color:#E9605A"/>
			</linearGradient>
			
				<rect x="2760.197" y="1549.054" style="fill:url(#SVGID_00000124135588223760562280000005556236327846918078_);" width="208.857" height="25.357"/>
			
				<linearGradient id="SVGID_00000132773485675942481500000010921898262258993594_" gradientUnits="userSpaceOnUse" x1="3145.4961" y1="1193.8345" x2="2993.4658" y2="1386.1084">
				<stop  offset="0" style="stop-color:#FF928E"/>
				<stop  offset="1" style="stop-color:#FE7062"/>
			</linearGradient>
			<polygon style="fill:url(#SVGID_00000132773485675942481500000010921898262258993594_);" points="2969.054,1549.054 
				2760.197,1549.054 2813.056,1520.696 2916.196,1520.696 			"/>
			
				<linearGradient id="SVGID_00000180337211409442941410000002650656859817496503_" gradientUnits="userSpaceOnUse" x1="2828.7297" y1="1175.9034" x2="2915.9238" y2="929.9714">
				<stop  offset="0" style="stop-color:#FF928E"/>
				<stop  offset="1" style="stop-color:#FE7062"/>
			</linearGradient>
			<path style="fill:url(#SVGID_00000180337211409442941410000002650656859817496503_);" d="M2690.132,1043.861
				c-11.467,0.698-20.849,9.187-20.849,18.866v19.794c0,9.678,9.387,17.092,20.86,16.475l358.035-19.264
				c11.474-0.617,20.861-9.041,20.861-18.719v-22.609c0-9.679-9.382-17.027-20.849-16.329L2690.132,1043.861z"/>
			
				<linearGradient id="SVGID_00000092456713464846686410000000362043615863456684_" gradientUnits="userSpaceOnUse" x1="3236.4075" y1="1177.7322" x2="2728.895" y2="1499.679">
				<stop  offset="0" style="stop-color:#FF928E"/>
				<stop  offset="1" style="stop-color:#FE7062"/>
			</linearGradient>
			<path style="fill:url(#SVGID_00000092456713464846686410000000362043615863456684_);" d="M2928.258,1413.111
				c-8.344,0-15.543-5.272-16.513-12.42c-1.043-7.684,5.51-14.626,14.635-15.508c1.738-0.174,121.885-12.861,133.276-78.621
				c1.921-11.087,1.708-25.572-10.215-31.616c-9.841-4.991-25.952-3.405-37.471,3.688c-6.549,4.032-13.717,11.096-10.668,21.848
				c2.134,7.526-3.383,15.083-12.324,16.879c-8.937,1.795-17.915-2.849-20.049-10.375c-5.526-19.492,3.218-38.545,23.392-50.967
				c22.413-13.804,52.963-15.888,74.292-5.076c12.467,6.32,32.42,22.476,25.978,59.661c-6.369,36.768-37.072,66.222-88.787,85.176
				c-37.135,13.611-72.162,17.097-73.635,17.238C2929.527,1413.081,2928.889,1413.111,2928.258,1413.111z"/>
			
				<linearGradient id="SVGID_00000052810013346702807250000009239205761021390227_" gradientUnits="userSpaceOnUse" x1="-1298.0707" y1="6876.064" x2="-1805.5833" y2="7198.0107" gradientTransform="matrix(-1 0 0 1 10180.1963 0)">
				<stop  offset="0" style="stop-color:#FF928E"/>
				<stop  offset="1" style="stop-color:#FE7062"/>
			</linearGradient>
			<path style="fill:url(#SVGID_00000052810013346702807250000009239205761021390227_);" d="M2803.645,1413.111
				c8.344,0,15.542-5.272,16.513-12.42c1.042-7.684-5.51-14.626-14.635-15.508c-1.738-0.174-121.885-12.861-133.276-78.621
				c-1.921-11.087-1.708-25.572,10.215-31.616c9.841-4.991,25.952-3.405,37.472,3.688c6.549,4.032,13.716,11.096,10.668,21.848
				c-2.134,7.526,3.383,15.083,12.323,16.879c8.937,1.795,17.916-2.849,20.049-10.375c5.527-19.492-3.218-38.545-23.392-50.967
				c-22.413-13.804-52.963-15.888-74.292-5.076c-12.467,6.32-32.42,22.476-25.978,59.661c6.369,36.768,37.072,66.222,88.787,85.176
				c37.135,13.611,72.162,17.097,73.635,17.238C2802.376,1413.081,2803.014,1413.111,2803.645,1413.111z"/>
			<path style="opacity:0.63;fill:#FFFFFF;" d="M2949.843,1060.161c-1.435,0-2.636-1.124-2.714-2.575
				c-0.081-1.5,1.071-2.782,2.571-2.863l31.974-1.719c1.505-0.058,2.782,1.07,2.863,2.571c0.081,1.5-1.071,2.782-2.571,2.863
				l-31.974,1.719C2949.943,1060.16,2949.892,1060.161,2949.843,1060.161z"/>
			<path style="opacity:0.63;fill:#FFFFFF;" d="M2705.257,1073.321c-1.435,0-2.636-1.124-2.714-2.575
				c-0.081-1.5,1.071-2.782,2.571-2.863l191.019-10.277c1.493-0.088,2.782,1.071,2.863,2.571c0.081,1.5-1.071,2.782-2.571,2.863
				l-191.019,10.277C2705.357,1073.319,2705.306,1073.321,2705.257,1073.321z"/>
			<path style="opacity:0.63;fill:#FFFFFF;" d="M2853.167,1363.484c-0.105,0-0.21-0.005-0.315-0.017
				c-34.59-3.979-62.242-32.146-82.188-83.718c-16.47-42.587-24.244-92.426-27.865-126.736c-0.157-1.495,0.926-2.834,2.421-2.992
				c1.498-0.142,2.834,0.926,2.992,2.421c6.215,58.898,28.913,196.837,105.261,205.618c1.493,0.173,2.564,1.521,2.393,3.015
				C2855.706,1362.462,2854.53,1363.484,2853.167,1363.484z"/>
			<path style="opacity:0.63;fill:#FFFFFF;" d="M2743.196,1128.538c-1.423,0-2.619-1.106-2.713-2.544
				c-0.51-7.853-0.647-12.371-0.653-12.559c-0.045-1.503,1.137-2.755,2.639-2.801c1.61-0.1,2.757,1.137,2.801,2.638
				c0.001,0.045,0.141,4.622,0.644,12.368c0.097,1.5-1.04,2.794-2.539,2.892C2743.315,1128.536,2743.255,1128.538,2743.196,1128.538
				z"/>
		</g>
		<g>
			
				<linearGradient id="SVGID_00000019651234380832477760000002776926595091343745_" gradientUnits="userSpaceOnUse" x1="1354.6818" y1="1911.4238" x2="932.0612" y2="1678.5018">
				<stop  offset="0" style="stop-color:#4F52FF"/>
				<stop  offset="1" style="stop-color:#4042E2"/>
			</linearGradient>
			<path style="fill:url(#SVGID_00000019651234380832477760000002776926595091343745_);" d="M1285.081,1772.124l-69.276,106.577
				c32.227,62.784,68.023,97.444,103.834,113.92c6.395-39.116,29.239-71.584,46.012-90.87
				C1301.766,1865.414,1285.081,1772.124,1285.081,1772.124z"/>
			
				<linearGradient id="SVGID_00000139260546046575657310000016033905576019643059_" gradientUnits="userSpaceOnUse" x1="1574.9495" y1="1863.3356" x2="1054.4775" y2="2115.4673">
				<stop  offset="0" style="stop-color:#FEBBBA"/>
				<stop  offset="1" style="stop-color:#FF928E"/>
			</linearGradient>
			<path style="fill:url(#SVGID_00000139260546046575657310000016033905576019643059_);" d="M1523.099,1882.618
				c-70.926,41.979-121.614,39.517-157.449,19.133c-16.773,19.286-39.617,51.754-46.012,90.87
				c113.843,52.379,227.842-79.458,227.842-79.458L1523.099,1882.618z"/>
			
				<linearGradient id="SVGID_00000091708341922589933530000017638370649135492796_" gradientUnits="userSpaceOnUse" x1="1577.4318" y1="1868.4603" x2="1056.9602" y2="2120.592">
				<stop  offset="0" style="stop-color:#FEBBBA"/>
				<stop  offset="1" style="stop-color:#FF928E"/>
			</linearGradient>
			<path style="fill:url(#SVGID_00000091708341922589933530000017638370649135492796_);" d="M1526.959,1900.875
				c0,0-19.147-33.381,8.389-59.013c0,0,8.878-10.128,18.627,4.752c0,0,29.622-26.892,37.723-16.06
				c8.101,10.833,29.574,37.655,8.602,68.249C1579.091,1929.743,1536.312,1915.953,1526.959,1900.875z"/>
			<path style="fill:#F79E6D;" d="M1556.072,1882.294c-2.827,0-5.856-0.523-8.537-2.111c-2.614-1.548-5.906-4.78-6.749-11.387
				c-0.242-1.898,1.101-3.634,3-3.876c1.886-0.228,3.634,1.1,3.876,3c0.396,3.111,1.505,5.169,3.392,6.292
				c2.628,1.567,6.534,1.247,9.434,0.623l-6.71-21.281c-0.575-1.825,0.437-3.771,2.262-4.346c1.824-0.579,3.773,0.437,4.346,2.262
				l7.773,24.651c0.548,1.738-0.342,3.601-2.037,4.267C1565.405,1880.668,1561.052,1882.294,1556.072,1882.294z"/>
			
				<linearGradient id="SVGID_00000080920397993200272990000004657650304925220251_" gradientUnits="userSpaceOnUse" x1="511.0624" y1="2687.4998" x2="592.5446" y2="2687.4998">
				<stop  offset="0" style="stop-color:#09005D"/>
				<stop  offset="1" style="stop-color:#1A0F91"/>
			</linearGradient>
			<path style="fill:url(#SVGID_00000080920397993200272990000004657650304925220251_);" d="M519.265,2598.364
				c-6.165,3.71-9.315,11.525-7.845,19.182c5.782,30.134,24.789,109.732,70.959,156.855c3.049,3.111,7.485,2.835,10.166,0.03
				c-11.691-12.18-26.187-32.999-43.133-68.356C523.368,2651.732,518.545,2618.216,519.265,2598.364z"/>
			
				<linearGradient id="SVGID_00000047739621285368531530000004318356662561089171_" gradientUnits="userSpaceOnUse" x1="519.1986" y1="2682.377" x2="605.9068" y2="2682.377">
				<stop  offset="0" style="stop-color:#09005D"/>
				<stop  offset="1" style="stop-color:#1A0F91"/>
			</linearGradient>
			<path style="fill:url(#SVGID_00000047739621285368531530000004318356662561089171_);" d="M578.883,2597.238
				c0,0-29.769-16.193-59.41,0.981c-0.074,0.042-0.135,0.102-0.207,0.146c-0.72,19.852,4.103,53.368,30.147,107.71
				c16.945,35.357,31.441,56.177,43.133,68.356c0.848-0.887,1.531-2.015,1.926-3.386
				C603.143,2740.916,621.455,2657.204,578.883,2597.238z"/>
			
				<linearGradient id="SVGID_00000178920197202974732730000006147337556815626671_" gradientUnits="userSpaceOnUse" x1="562.486" y1="2594.7007" x2="626.2478" y2="2594.7007">
				<stop  offset="0" style="stop-color:#FEBBBA"/>
				<stop  offset="1" style="stop-color:#FF928E"/>
			</linearGradient>
			<path style="fill:url(#SVGID_00000178920197202974732730000006147337556815626671_);" d="M621.879,2599.113l-26.977,25.882
				c-4.772,4.577-12.089,5.315-17.598,1.658c-4.806-3.19-10.155-8.421-13.716-16.899c-2.137-5.087-1.111-10.973,2.601-15.057
				l26.932-29.625c6.428-7.071,17.864-5.901,22.728,2.325l8.421,14.243C627.625,2587.314,626.635,2594.55,621.879,2599.113z"/>
			
				<linearGradient id="SVGID_00000109723974984769041730000012971850353878023811_" gradientUnits="userSpaceOnUse" x1="1493.7966" y1="2394.9431" x2="1615.9443" y2="2394.9431">
				<stop  offset="0" style="stop-color:#09005D"/>
				<stop  offset="1" style="stop-color:#1A0F91"/>
			</linearGradient>
			<path style="fill:url(#SVGID_00000109723974984769041730000012971850353878023811_);" d="M1493.797,2469.282
				c6.272,3.526,14.622,2.401,20.553-2.66c23.339-19.92,83.141-75.784,101.287-139.211c1.198-4.188-1.235-7.908-4.999-8.852
				c-4.81,16.183-15.744,39.075-38.106,71.281C1538.163,2439.338,1511.411,2460.097,1493.797,2469.282z"/>
			
				<linearGradient id="SVGID_00000004510118103532533360000013090206114866086303_" gradientUnits="userSpaceOnUse" x1="1463.3523" y1="2393.8015" x2="1610.6382" y2="2393.8015">
				<stop  offset="0" style="stop-color:#09005D"/>
				<stop  offset="1" style="stop-color:#1A0F91"/>
			</linearGradient>
			<path style="fill:url(#SVGID_00000004510118103532533360000013090206114866086303_);" d="M1463.352,2418.011
				c0,0,0.636,33.882,30.215,51.162c0.074,0.043,0.155,0.067,0.229,0.109c17.614-9.185,44.366-29.944,78.736-79.442
				c22.362-32.206,33.296-55.097,38.106-71.281c-1.19-0.299-2.508-0.335-3.895,0
				C1576.264,2325.91,1494.441,2351.364,1463.352,2418.011z"/>
			
				<linearGradient id="SVGID_00000115516953660908453040000000492229461086248583_" gradientUnits="userSpaceOnUse" x1="1424.3063" y1="2389.5359" x2="1494.3595" y2="2389.5359">
				<stop  offset="0" style="stop-color:#FEBBBA"/>
				<stop  offset="1" style="stop-color:#FF928E"/>
			</linearGradient>
			<path style="fill:url(#SVGID_00000115516953660908453040000000492229461086248583_);" d="M1461.265,2361.907l28.189,24.557
				c4.986,4.344,6.374,11.565,3.224,17.379c-2.747,5.071-7.48,10.867-15.606,15.171c-4.876,2.583-10.83,2.087-15.229-1.246
				l-31.913-24.178c-7.617-5.771-7.473-17.266,0.285-22.845l13.434-9.66C1449,2357.237,1456.296,2357.578,1461.265,2361.907z"/>
			
				<linearGradient id="SVGID_00000011738267181865977730000016496824908090594186_" gradientUnits="userSpaceOnUse" x1="583.14" y1="2361.4543" x2="1055.1082" y2="2361.4543">
				<stop  offset="0" style="stop-color:#09005D"/>
				<stop  offset="1" style="stop-color:#1A0F91"/>
			</linearGradient>
			<path style="fill:url(#SVGID_00000011738267181865977730000016496824908090594186_);" d="M895.696,2113.364
				c0,0-55.004,187.385-90.565,269.745c0,0-62.164,9.483-100.64,31.964c-38.475,22.481-121.351,147.081-121.351,147.081
				s21.643,41.087,47.757,47.39l235.923-163.468l188.288-218.965l-8.937-101.561L895.696,2113.364z"/>
			
				<linearGradient id="SVGID_00000074424278780234836880000018443221253730843010_" gradientUnits="userSpaceOnUse" x1="882.9898" y1="2249.083" x2="1463.3523" y2="2249.083">
				<stop  offset="0" style="stop-color:#09005D"/>
				<stop  offset="1" style="stop-color:#1A0F91"/>
			</linearGradient>
			<path style="fill:url(#SVGID_00000074424278780234836880000018443221253730843010_);" d="M899.085,2098.078l-16.095,51.314
				c0,0,14.722,134.53,184.322,111.844c169.601-22.686,190.917-50.374,190.917-50.374s-14.723,85.92,170.729,189.226
				c0,0,28.189-21.28,34.394-45.444l-129.961-214.201c-18.077-28.097-34.841-35.497-67.849-30.335
				c-72.986,11.414-209.651,26.292-230.334,22.76L899.085,2098.078z"/>
			
				<linearGradient id="SVGID_00000071535684003040691020000002847795328672045489_" gradientUnits="userSpaceOnUse" x1="1081.3705" y1="1792.5917" x2="697.1684" y2="2404.9128">
				<stop  offset="0" style="stop-color:#4F52FF"/>
				<stop  offset="1" style="stop-color:#4042E2"/>
			</linearGradient>
			<path style="fill:url(#SVGID_00000071535684003040691020000002847795328672045489_);" d="M1031.546,1716.505
				c-49.426,2.514-127.552,26.009-178.019,72.469c15.512,17.123,39.38,44.965,57.171,72.467
				c15.897-14.926,38.727-27.357,70.87-35.319c-27.783,103.837-60.622,202.766-100.64,294.724
				c-2.504,5.755,0.348,12.413,6.275,14.478c30.966,10.791,122.285,36.491,195.529-4.898l162.384-232.516
				c17.464-25.006,28.943-53.692,33.553-83.842l6.412-41.945C1285.081,1772.124,1139.242,1711.029,1031.546,1716.505z"/>
			
				<linearGradient id="SVGID_00000052081675778207045560000001727130281016598930_" gradientUnits="userSpaceOnUse" x1="929.0314" y1="2033.531" x2="619.2697" y2="1486.0446">
				<stop  offset="0" style="stop-color:#FEBBBA"/>
				<stop  offset="1" style="stop-color:#FF928E"/>
			</linearGradient>
			<path style="fill:url(#SVGID_00000052081675778207045560000001727130281016598930_);" d="M942.985,2068.362
				c-7.058-15.583-31.219-30.144-42.751-36.4c-10.032-20.68-50.076-113.685,10.464-170.522
				c-17.791-27.502-41.659-55.344-57.171-72.467c-58.228,53.606-79.544,137.815,22.565,255.721
				c-5.573,29.041,12.612,62.856,22.445,67.596C903.068,2114.475,952.365,2089.073,942.985,2068.362z"/>
			
				<linearGradient id="SVGID_00000062910853233293382120000002508191598135691691_" gradientUnits="userSpaceOnUse" x1="1124.8488" y1="1799.229" x2="1157.2656" y2="1706.7806">
				<stop  offset="0" style="stop-color:#FEBBBA"/>
				<stop  offset="1" style="stop-color:#FF928E"/>
			</linearGradient>
			<path style="fill:url(#SVGID_00000062910853233293382120000002508191598135691691_);" d="M1141.231,1654.746l-42.424,83.038
				c-2.588,5.065-1.818,11.188,1.982,15.421c10.273,11.442,34.535,30.026,76.738,16.707c4.653-1.468,8.002-5.559,8.709-10.386
				l11.048-75.414L1141.231,1654.746z"/>
			<g>
				
					<linearGradient id="SVGID_00000156552551113771914760000018186514545983987334_" gradientUnits="userSpaceOnUse" x1="1217.1727" y1="1608.6373" x2="1074.9264" y2="1717.4774">
					<stop  offset="0" style="stop-color:#FEBBBA"/>
					<stop  offset="1" style="stop-color:#FF928E"/>
				</linearGradient>
				<path style="fill:url(#SVGID_00000156552551113771914760000018186514545983987334_);" d="M1211.957,1558.324
					c0,0,24.883,57.16,26.554,87.161c1.671,30.001,8.136,49.468-26.554,55.51c-34.689,6.041-63.912-11.239-79.744-41.124
					c0,0-24.805-46.049-19.241-64.908C1118.537,1576.105,1211.957,1558.324,1211.957,1558.324z"/>
				
					<linearGradient id="SVGID_00000152225176912574917860000010209140630512437147_" gradientUnits="userSpaceOnUse" x1="1117.0377" y1="1522.4598" x2="1249.5176" y2="1693.0273">
					<stop  offset="0" style="stop-color:#09005D"/>
					<stop  offset="1" style="stop-color:#1A0F91"/>
				</linearGradient>
				<path style="fill:url(#SVGID_00000152225176912574917860000010209140630512437147_);" d="M1144.067,1638.384l1.975-0.87
					c2.514-1.108,3.589-4.101,2.326-6.541c-4.891-9.451-14.428-31.11-2.108-36.162c15.876-6.511,78.765-19.336,92.334-41.651
					c13.04-21.447,1.486-49.131-15.879-57.005c-1.162-0.527-2.532-0.109-3.128,1.019l-1.447,2.738
					c-0.991,1.875-3.759,1.59-4.348-0.446l0,0c-0.566-1.955-3.166-2.334-4.245-0.608c-4.171,6.676-15.431,17.5-45.544,23.057
					c-42.795,7.898-71.089,25.217-71.793,54.789c-0.045,1.879-2.043,2.923-3.648,1.945c-3.16-1.926-8.216-2.83-14.974,2.853
					c-11.752,9.882-6.943,35.518,18.821,56.605c1.224,1.002,1.214,2.913-0.111,3.775c-4.671,3.041-11.634,10.275,6.408,19.919
					c18.662,9.976,32.597,9.157,37.963,8.272c1.335-0.22,2.195-1.512,1.904-2.834l-5.727-25.991
					c-0.324-1.471,0.796-2.865,2.302-2.865H1144.067z"/>
				
					<linearGradient id="SVGID_00000106830522961367663910000007599513139594310576_" gradientUnits="userSpaceOnUse" x1="1199.5291" y1="1585.5775" x2="1057.2821" y2="1694.4182">
					<stop  offset="0" style="stop-color:#FEBBBA"/>
					<stop  offset="1" style="stop-color:#FF928E"/>
				</linearGradient>
				<path style="fill:url(#SVGID_00000106830522961367663910000007599513139594310576_);" d="M1145.145,1643.869
					c0,0-9.493-36.512-25.863-26.275c-16.37,10.238,8.495,40.911,21.656,42.277L1145.145,1643.869z"/>
			</g>
		</g>
	</g>
</g>
</svg>
