<?xml version="1.0" encoding="utf-8"?>
<!-- Generator: Adobe Illustrator 27.5.0, SVG Export Plug-In . SVG Version: 6.00 Build 0)  -->
<svg version="1.1" id="Слой_2" xmlns="http://www.w3.org/2000/svg" xmlns:xlink="http://www.w3.org/1999/xlink" x="0px" y="0px"
	 viewBox="0 0 2700 2000" style="enable-background:new 0 0 2700 2000;" xml:space="preserve">
<rect style="fill:#FFFFFF;" width="2700" height="2000"/>
<g>
	<rect x="125.231" y="115.486" style="opacity:0.2;fill:#E9CA6D;" width="2449.826" height="1777.593"/>
	<g>
		<g>
			<path style="fill:#E9CA6D;" d="M628.331,1784.332c281.816,159.949,771.82,45.7,921.614,38.083
				c149.794-7.616,337.671,55.855,396.064,48.239c58.395-7.617,403.682-53.316,441.766,22.85H128.171
				C128.171,1893.504,346.515,1624.383,628.331,1784.332z"/>
			<path style="opacity:0.2;fill:#E9CA6D;" d="M2179.592,965.119L2179.592,965.119c-80.163,0-153.631,23.107-209.648,61.066
				c-40.907,27.72-96.143-1.193-96.143-50.608V745.711c0-225.701-178.079-410.366-395.731-410.366h-0.001
				c-217.652,0-395.731,184.665-395.731,410.366v0.001c0,135.104-118.517,240.304-252.486,222.831
				c-17.255-2.251-34.972-3.423-53.029-3.423h0c-174.566,0-317.393,109.572-317.393,243.495v43.395
				c0,12.275-9.954,22.225-22.228,22.22h-0.228h0c-121.393,0-220.715,72.716-220.715,161.591v448.256h243.172h198.259h424.649
				h11.877h767.984h11.603h623.184v-675.461C2496.984,1074.691,2354.157,965.119,2179.592,965.119z"/>
		</g>
		<path style="opacity:0.2;fill:#E9CA6D;" d="M423.026,1238.487c0,0,8.18-72.26-81.804-77.714
			C341.222,1160.773,346.676,1249.395,423.026,1238.487z"/>
		<path style="opacity:0.2;fill:#E9CA6D;" d="M2055.105,949.39c0,0,71.998,10.232,80.008-79.56
			C2135.113,869.829,2046.373,872.76,2055.105,949.39z"/>
		<path style="opacity:0.2;fill:#E9CA6D;" d="M1797.368,440.632c0,0,33.339-64.629-48.825-101.721
			C1748.543,338.911,1722.13,423.679,1797.368,440.632z"/>
	</g>
	<g>
		<path style="fill:#DA8B39;" d="M99.333,1893.772h2485.94c3.863,0,7.025-3.161,7.025-7.026l0,0c0-3.863-3.162-7.025-7.025-7.025
			H99.333c-3.864,0-7.026,3.162-7.026,7.025l0,0C92.308,1890.611,95.469,1893.772,99.333,1893.772z"/>
	</g>
	<g>
		<path style="fill:#2B295E;" d="M1502.279,857.083c0,0-312.821,27.554-359.437-22.326c0,0,136.146-87.956,84.437-230.916
			l220.863-52.223C1448.143,551.617,1516.705,804.016,1502.279,857.083z"/>
		<path style="fill:#221E50;" d="M1042.869,1154.163l-28.364-4.04l-34.676,74.609
			C979.829,1224.732,1022.245,1221.237,1042.869,1154.163z"/>
		<path style="fill:#221E50;" d="M1428.463,1318.634l-9.302,27.099l66.757,48.089
			C1485.918,1393.821,1490.462,1351.505,1428.463,1318.634z"/>
		<path style="fill:#AD7041;" d="M1151.952,354.021l-1.328-22.6c0,0,20.823-25.053-1.262-53.14c0,0-9.891-10.837-14.164-0.784
			c-4.272,10.054-1.329,6.893-7.631,20.918c-6.303,14.025-0.388,31.756,3.266,37.789l-0.486,18.198L1151.952,354.021z"/>
		<path style="fill:#AD7041;" d="M1480.837,313.665l-6.315-21.74c0,0-28.009-16.635-16.603-50.496c0,0,5.691-13.523,13.083-5.48
			c7.393,8.042,3.561,6.05,14.195,17.155c10.635,11.105,10.998,29.793,9.574,36.702l6.551,16.985L1480.837,313.665z"/>
		<path style="fill:#DDE3F2;" d="M1472.499,294.365l23.257-2.945l3.396,6.288c0,0-27.714,5.949-27.814,5.149
			C1471.236,302.056,1472.499,294.365,1472.499,294.365z"/>
		<path style="fill:#9E5F32;" d="M1383.424,551.789c-11.18-21.227-11.142-35.278-11.142-35.278l-54.612-28.165
			c1.054,43.2-5.048,55.608-2.529,72.37C1315.205,561.146,1383.646,552.212,1383.424,551.789z"/>
		<path style="fill:#AD7041;" d="M1383.147,513.39c0,0-57.596,22.129-70.824-13.951c-13.229-36.079-29.572-57.522,6.642-73.176
			c36.214-15.654,48.447-4.521,55.792,6.447C1382.102,443.678,1397.788,506.704,1383.147,513.39z"/>
		<path style="fill:#2B295E;" d="M1313.243,501.927c0,0-9.02-50.114,43.669-69.254c36.089-13.11,7.179-39.586,1.915-43.638
			c0,0-27.334,11.259-55.14,23.618C1245.327,438.593,1305.264,495.835,1313.243,501.927z"/>
		<path style="fill:#2B295E;" d="M1439.26,880.46c0,0,63.104,87.184,84.63,117.304c88.78,124.226,85.247,150.788,85.247,150.788
			s-49.667,81.606-66.413,105.109c-18.129,25.443-73.088,90.677-73.088,90.677l-64.402-27.1c0,0,32.629-72.976,46.566-97.688
			c9.724-17.24,48.077-70.124,48.077-70.124s-40.22-30.396-81.655-56.946c-59.101-37.87-144.857-167.639-144.857-167.639
			L1439.26,880.46z"/>
		<path style="fill:#333381;" d="M1418.825,848.294c0,0-46.933,361.208-84.245,383.062c-64.645,37.862-309.752-20.47-309.752-20.47
			l10.506-61.188c0,0,60.522-6.862,104.53-11.666c31.02-3.386,95.965,2.135,95.965,2.135s-3.815-196.535,22.669-256.804
			C1299.672,789.669,1418.825,848.294,1418.825,848.294z"/>
		<path style="fill:#DDE3F2;" d="M1448.902,878.425c-0.77,3.562-3.706,6.252-7.324,6.71c0,0-62.028,16.224-102.158,21.298
			c-3.915,0.496-7.615,0.883-11.039,1.138c-47.262,3.545-76.569,1.595-76.569,1.595c-6.315,0.8-10.7-6.144-7.237-11.487
			c7.524-11.616,17.762-32.318,28.111-68.383c14.024-48.86-11.76-138.526-33.22-199.257c-13.006-36.808-24.421-62.983-24.421-62.983
			c25.426-13.049,60.127-21.959,95.449-28.179c0.442-0.078,2.075-0.366,2.517-0.443c0.827-0.144,1.654-0.287,2.48-0.427
			c5.958,2.344,30.122,13.604,50.738,6.902c10.936-3.556,11.03-8.017,9.719-10.535c1.615-2.875,2.956-4.604,5.422-4.843
			c47.435-4.598,86.444-4.538,86.444-4.538C1493.634,659.463,1456.533,843.242,1448.902,878.425z"/>
		<path style="fill:#DDE3F2;" d="M1400.846,533.273l64.573-83.994c0,0,0.733-141.926,11.13-149.749l25.262-7.46
			c0,0,16.567,151.736,17.934,168.724c0,0-52.473,143.345-59.136,147.54C1453.944,612.528,1400.846,533.273,1400.846,533.273z"/>
		<path style="fill:#DDE3F2;" d="M1302.054,550.868c0,0-68.292-38.6-87.622-53.937l-63.488-160.062l-20.74,2.311
			c0,0,10.698,163.158,16.122,174.168c27.689,56.207,139.137,137.088,139.137,137.088L1302.054,550.868z"/>
		<path style="fill:#CED4EA;" d="M1338.995,906.227c0.146,0.063,0.284,0.126,0.425,0.206c-3.915,0.496-7.615,0.883-11.039,1.138
			c-47.262,3.545-76.569,1.595-76.569,1.595c-6.315,0.8-10.7-6.144-7.237-11.487c7.524-11.616,17.762-32.318,28.111-68.383
			c14.024-48.86-11.76-138.526-33.22-199.257l59.998-4.638c0,0,32.79,126.811,24.271,179.13
			C1315.214,856.844,1323.954,899.527,1338.995,906.227z"/>
		<path style="fill:#555CA3;" d="M1310.151,534.525c0,0-11.758,311.777-108.514,389.097c0,0-75.215-64.083-71.797-85.255
			c0,0,104.025-103.676,102.577-144.009c-1.448-40.333-2.263-88.012-5.138-90.517c-2.875-2.504-76.736-67.472-80.954-90.491
			c-4.218-23.019-27.739-168.473-27.739-168.473s29.366-0.958,37.223-4.714c0,0,55.047,149.492,63.387,157.758
			c8.34,8.266,65.534,45.771,71.149,42.967S1306.424,530.914,1310.151,534.525z"/>
		<path style="fill:#555CA3;" d="M1476.604,587.866c-0.86,9.649,39.211,163.135,42.083,201.803c0.106,1.418,0.202,2.821,0.287,4.201
			c0.033,0.386,0.057,0.766,0.08,1.144c2.358,38.083-1.302,60.108-1.302,60.108s-34.95,21.896-50.954,21.849
			c0,0,32.785-166.543-6.188-268.642c0,0-51.032-76.587-79.242-78.798c0,0,8.11-6.542,21.792-5.565c0,0,59.509-67.072,62.307-80.497
			c2.799-13.417-4.827-140.689-4.827-140.689l41.173-10.712c0,0,21.438,159.205,17.935,168.725
			C1516.236,470.315,1477.465,578.217,1476.604,587.866z"/>
		<path style="fill:#333381;" d="M1310.151,534.525c0,0-21.247,44.171-25.492,49.182l9.177,9.411l-9.629,6.286
			c0,0,7.465,101.77,4.5,116.89C1288.707,716.294,1313.688,545.328,1310.151,534.525z"/>
		<path style="fill:#333381;" d="M1381.369,529.53c-1.051,0.304,75.728,56.196,89.719,113.582c0,0,6.85-16.781-16.18-54.125
			c0,0-16.711-29.197-17.973-35.951c0,0-13.249,1.272-13.958-1.079c-0.71-2.35,0.709,2.351,0.709,2.351l8.639-5.567
			c0,0-38.956-25.69-44.956-22.45C1381.369,529.53,1381.369,529.53,1381.369,529.53z"/>
		<path style="fill:#2B295E;" d="M1226.207,828.56c-8.247-1.709-17.432-7.825-27.3-18.179c-7.311-7.669-12.296-14.946-12.346-15.018
			l0,0c0.194,0.285,21.03,27.691,39.973,31.616L1226.207,828.56z"/>
		<path style="fill:#2B295E;" d="M1518.975,793.871c0.033,0.386,0.057,0.766,0.08,1.144c-10.109,4.623-18.766,6.533-25.81,5.692
			l0.195-1.603c2.493,0.294,5.145,0.227,7.874-0.119C1507.135,798.249,1513.283,796.259,1518.975,793.871z"/>
		<path style="fill:#2B295E;" d="M1289.035,939.394c-0.496,2.503-9.05,159.747-9.403,189.071l-1.56,26.225
			c0,0,1.972,12.357-7.087,11.471c-9.059-0.886-100.48-0.258-122.946,2.165c-22.467,2.423-94.968,7.944-94.968,7.944
			s75.673-4.025,81.276-4.734c5.604-0.71,16.01-2.027,19.313-1.633c3.303,0.395,90.454-5.047,106.011-2.087
			c15.557,2.959,20.043-0.147,19.746-2.501s0.553-12.763,1.813-17.803c1.259-5.039,2.117-73.197,3.282-80.055
			S1289.035,939.394,1289.035,939.394z"/>
		<path style="fill:#2B295E;" d="M1301.229,941.211c-2.142,0.272-3.4,0.323-3.461,0.325l-0.08-2.419
			c0.297-0.014,31.901,0.302,52.223-23.198l0,0C1333.046,935.423,1309.899,940.113,1301.229,941.211z"/>
	</g>
	<g>
		<path style="fill:#E5B0B4;" d="M716.846,1019.742c0,0-2.266,148.127,6.004,160.532c8.271,12.405,130.456,182.686,130.456,182.686
			l17.368-20.676c0,0-63.298-175.86-74.876-190.747l26.909-140.065L716.846,1019.742z"/>
		<path style="fill:#555CA3;" d="M1007.254,558.214c-2.38,24.854-6.283,47.934-22.17,80.039
			c-45.332,25.336-102.53,33.188-102.53,33.188c38.792,0.897,67.343-3.627,91.623-11.033c-7.649,14.339-12.616,21.327-24.48,35.681
			c0,0-88.425,11.79-151.796-17.685c-38.133-17.737-84.928-51.957-105.741-93.583c-10.316-20.633-38.686-89.162,59.318-99.478
			c98.004-10.316,124.789,50.785,155.48,56.739c49.371,9.579,72.951-12.527,98.741-41.265c0,0,1.813,8.614,2.468,23.146
			c-4.089,18.893-16.587,39.99-51.102,45.141C957.066,569.104,986.644,569.598,1007.254,558.214z"/>
		<path style="fill:#D6979C;" d="M785.374,816.2c5.031-35.43,45.958-102.93,40.022-121.634c-5.937-18.704-29.767-38.74-29.767-38.74
			s-6.573-3.195-18.16-6.393c-1.203-11.039-2.354-28.579-0.331-45.855l-54.527-2.646c0,0,0.544,23.654-5.46,42.47
			c-7.488,0.472-15.363,1.41-23.562,2.957c0,0-38.946,9.882,2.624,181.631c0,0-4.068,30.922,15.475,75.898l67.792-8.106
			C779.479,895.782,779.521,857.418,785.374,816.2z"/>
		<path style="fill:#DCABB0;" d="M778.991,609.152c-13.549,10.884-30.476,25.487-61.442-6.898
			c-6.058-6.336-4.847-15.168-4.129-27.94c0.843-15.119-1.988-24.665,0.447-33.213c2.899-10.226,12.198-14.156,30.795-14.168
			c34.142-0.014,50.609,9.101,46.881,25.72C783.222,589.745,792.77,598.082,778.991,609.152z"/>
		<path style="fill:#E5B0B4;" d="M763.636,953.382c-28.38,32.128-204.706,48.669-205.218,48.511
			c65.581,42.738,121.584,199.692,121.584,199.692l-9.58,25.054c-184.709-180.043-192.324-249.063-192.324-249.063
			c58.771-57.667,266.983-103.678,266.983-103.678S789.672,923.907,763.636,953.382z"/>
		<path style="fill:#D25C2A;" d="M677.419,1189.647l16.809,17.123l-33.096,60.433
			C661.132,1267.203,642.427,1236.863,677.419,1189.647z"/>
		<path style="fill:#D25C2A;" d="M872.533,1328.936l12.459,22.986l-52.829,53.351
			C832.164,1405.272,821.69,1367.871,872.533,1328.936z"/>
		<path style="fill:#E5B0B4;" d="M1062.732,699.059c-27.639,1.722-31.381,26.691-31.381,26.691
			c-88.286,24.131-120.685,42.708-120.685,42.708c-10.208-15.388-67.536-91.685-73.374-99.315c-5.838-7.63-46.76-4.001-46.76-4.001
			s12.405,34.342,24.301,60.678c11.895,26.337,72.023,73.331,95.884,73.797c31.611,0.618,122.329-56.448,122.329-56.448
			l-0.017-0.175l6.598-1.362c8.535-0.452,17.85-8.698,22.708-19.58c4.858-10.882,4.549-7.549,8.159-15.207
			C1074.104,699.187,1062.732,699.059,1062.732,699.059z"/>
		<path style="fill:#E5B0B4;" d="M702.896,646.016c0,0-15.445-7.538-33.353-0.81c-17.908,6.727-89.395,68.101-89.395,68.101
			s-65.387-65.2-91.744-90.568c0,0,9.62-23.344-13.206-39.023c0,0-9.82-5.733-10.659,2.691c-0.839,8.425,0.608,5.407-0.815,17.238
			c-1.424,11.832,2.331,23.693,9.42,28.465l4.371,4.017c10.252,20.985,58.294,115.358,101.125,132.331
			C578.639,768.458,718.311,710.051,702.896,646.016z"/>
		<path style="fill:#D25C2A;" d="M868.089,710.274c0,0-33.837,28.311-36.785,40.587c0,0-7.929-11.348-9.72-12.696
			c-0.191-0.147-0.31-0.177-0.346-0.074c-0.368,1.106-32.422,87.931-26.527,104.636c2.048,5.807,45.295,88.867,33.137,144.125
			c0,0-30.927,151.855-29.453,162.657l13.382,33.653l-1.842,0.243c-2.727,0.154-5.645,0.553-8.688,1.135
			c-26.019,5.018-61.065,23.919-61.065,23.919s-5.895-4.907-14-17.435c-7.457-11.524-9.093-35.37-9.093-35.37
			s-19.019-166.96-19.432-166.813c-35.252,12.726-125.607,19.313-125.607,19.313c14.922,13.448,26.712,31.502,26.712,31.502
			c-5.158,14-63.681,46.976-63.681,46.976c-61.647-85.721-57.719-112.742-57.719-112.742
			c42.591-43.372,161.95-77.423,209.006-89.538c-2.159-16.115-3.883-27.132-4.893-30.204
			c-23.683-72.155-23.948-120.7-23.595-127.811c0.007-0.081,0.007-0.155,0.015-0.221c0,0-0.825,0.692-10.81,6.448
			c0,0-1.083-3.913-3.007-9.727c-4.473-13.521-13.455-37.315-23.764-45.907c0,0,42.496-33.653,53.055-34.876
			c10.559-1.231,35.738,2.085,35.738,2.085s0.737,50.476,24.685,62.266c0,0,51.213-33.159,52.318-54.529
			c0,0,37.949,5.158,43.476,9.58C835.114,665.878,861.213,693.083,868.089,710.274z"/>
		<path style="fill:#C3592D;" d="M827.848,986.852c0,0-30.927,151.855-29.453,162.657l13.382,33.653l-1.842,0.243
			c-2.727,0.154-5.645,0.553-8.688,1.135c-6.322-10.354-16.182-27.242-19.822-37.426c-5.519-15.475,29.003-135.644,38.583-165.855
			c9.579-30.212-52.686-123.426-58.213-136.321c-5.527-12.895,39.422-107.952,49.739-112.742c5.475-2.542,8.459,1.562,10.051,5.969
			c-0.191-0.147-0.31-0.177-0.346-0.074c-0.368,1.106-32.422,87.931-26.527,104.636
			C796.759,848.534,840.006,931.595,827.848,986.852z"/>
		<path style="fill:#C3592D;" d="M697.657,988.842c-35.252,12.726-125.607,19.313-125.607,19.313s105.248-54.896,122.446-41.139
			C703.442,974.171,701.614,982.394,697.657,988.842z"/>
		<path style="fill:#C3592D;" d="M657.881,726.338c0.007-0.081,0.007-0.155,0.015-0.221c0,0-0.825,0.692-10.81,6.448
			c0,0-1.083-3.913-3.007-9.727c5.549-3.721,12.291-7.531,14.922-6.116C661.786,718.218,660.084,722.588,657.881,726.338z"/>
		<path style="fill:#555CA3;" d="M727.517,528.614c0,0,20.905-8.181,27.268,9.543c6.362,17.724,16.361,27.722,40.447,26.813
			c24.086-0.909,49.537-19.997,49.537-19.997s-25.904,10.907-37.266-9.089C796.141,515.889,758.42,504.982,727.517,528.614z"/>
	</g>
	<g>
		<polygon style="fill:#E5B0B4;" points="2074.592,1009.979 2152.753,1004.389 2150.121,1024.349 2090.283,1047.353 		"/>
		<path style="fill:#D25C2A;" d="M2123.053,1004.825l27.979-8.844l47.562,69.56
			C2198.594,1065.541,2155.152,1069.131,2123.053,1004.825z"/>
		<polygon style="fill:#E5B0B4;" points="2007.046,1092.878 2080.527,1119.185 2068.257,1135.147 2003.853,1128.002 		"/>
		<path style="fill:#D25C2A;" d="M2054.597,1104.695l28.648,6.351l6.354,84.024
			C2089.599,1195.07,2050.194,1176.433,2054.597,1104.695z"/>
		<path style="fill:#333381;" d="M1870.121,842.813c0,0-156.508,128.945-119.615,242.023c0,0,17.023,40.821,284.786,49.307
			l-1.474-33.404c0,0-137.456-54.551-205.342-60.915c0,0,124.479-103.887,128.051-156.762
			C1960.098,830.187,1870.121,842.813,1870.121,842.813z"/>
		<path style="fill:#555CA3;" d="M2116.973,1042.301c-0.075,0.021-0.144,0.034-0.219,0.055
			c-196.601,49.538-258.396,50.827-277.812,46.948c-8.609-1.725-8.882-4.466-8.882-4.466
			c-36.887-113.079,114.6-250.359,114.6-250.359s67.761-3.067,86.671,27.841c3.483,5.685,5.304,12.523,4.751,20.744
			c-2.297,34.058-53.84,83.14-90.242,113.762c-19.238,16.19-34.249,27.22-35.53,28.161l-0.068,0.048
			c63.534-39.211,186.396-19.388,186.396-19.388L2116.973,1042.301z"/>
		<path style="fill:#4F549E;" d="M2036.083,883.061c-2.299,34.058-53.843,83.141-90.245,113.766l-35.531,28.156
			c14.892-11.62,89.861-163.482,89.861-163.482l31.162,0.818C2034.816,868.006,2036.636,874.845,2036.083,883.061z"/>
		<path style="fill:#E5B0B4;" d="M2189.008,419.092c-3.048-11.521-1.197-8.732-3.193-16.96c-1.997-8.227-10.93-1.189-10.93-1.189
			c-20.436,18.688-7.678,40.476-7.678,40.476c-11.668,18.032-69.799,123.368-69.799,123.368
			c-47.732,2.121-118.855,18.176-118.855,18.176s-21.248,64.197,13.756,66.318c35.003,2.122,133.738-46.309,142.225-53.734
			c8.485-7.425,49.085-146.959,49.085-146.959C2189.979,442.879,2192.056,430.612,2189.008,419.092z"/>
		<path style="fill:#E5B0B4;" d="M1939.098,285.865c-7.787,3.323-4.445,3.138-15.5,7.589s-19.64,13.454-20.408,21.966l-2.699,10.998
			c-83.936,107.304-74.624,152.45-74.624,152.45c-2.121,41.368,30.857,148.306,30.857,148.306l50.107-35.861
			c4.242-30.76-36.7-124.434-36.7-124.434c28.002-57.956,46.998-137.835,46.998-137.835s26.715-7.578,29.461-35.134
			C1946.59,293.91,1946.885,282.543,1939.098,285.865z"/>
		<path style="fill:#D25C2A;" d="M1941.34,726.417c0,0-67.713-70.249-125.63-112.978c-3.96-10.709-6.114-24.95-6.114-24.95
			c-3.252,5.931-2.747,13.586-1.677,19.333c-15.733-11.085-30.444-19.715-42.504-23.833c-4.057-23.566,18.617-48.332,18.617-48.332
			c-19.477,7.894-27.37,33.873-29.954,45.776c-2.093-0.17-4.042-0.109-5.835,0.191c0,0-1.957-79.574,119.583-79.574
			c47.289,0,40.513-82.158,107.824-76.262c0,0,73.507,14.363,59.784,78.47c-13.723,64.107,8.828,78.47,16.667,92.84
			C2059.941,611.47,2026.613,712.047,1941.34,726.417z"/>
		<path style="fill:#D6979C;" d="M1932.425,529.858c0,0,1.425,59.981-37.875,41.313l35.718,52.636l70.883-28.073
			c0,0-33.404-21.615-21.172-67.095L1932.425,529.858z"/>
		<path style="fill:#E5B0B4;" d="M1916.375,538.389c0,0,56.597,28.678,73.913-6.842s36.284-55.741,0.881-75.553
			c-35.402-19.813-49.085-9.707-57.748,0.743C1924.757,467.187,1902.1,530.013,1916.375,538.389z"/>
		<path style="fill:#E5B0B4;" d="M1892.289,576.727c0,0-95.252,52.705-22.168,266.085l152.288,8.299
			c0,0-65.06-90.519-49.502-121.634c15.558-31.116,46.674-128.706,46.674-128.706L1892.289,576.727z"/>
		<path style="fill:#EDCB76;" d="M2152.944,549.309c0,0-13.264,44.581-19.646,48.147c-6.389,3.56-89.898,46.423-115.202,49.857
			c0,0-8.857,0.906-11.989,2.41c-0.523,0.243-0.885,0.508-1.024,0.789c-0.987,1.96-24.272,80.901-24.811,101.563
			c-0.368,14.126,61.897,105.004,61.161,115.321c-0.067,0.921-0.281,1.761-0.635,2.52c-3.5,7.729-20.646,7.074-34.735-0.309
			c-15.475-8.106-56.739-25.791-85.478-19.896c-28.738,5.895-58.213-1.474-68.529-33.159c-10.316-31.686-8.843-96.53-11.79-109.794
			c-2.947-13.256-5.526-54.868,12.136-82.5h0.008c0-0.007,0.008-0.022,0.015-0.029c0,0,2.211-4.421-1.474-13.632
			c-3.685-9.211-30.58-106.11-26.527-135.216c0,0,11.053-53.423,16.211-61.529c0,0,3.78,3.581,9.005,8.415
			c10.581,9.793,27.088,24.744,30.05,25.481c0,0-8.843,17.317-8.29,19.159c0.553,1.842,34.081,96.899,35.923,102.425
			c0,0,3.036-2.49,5.895,0.369c0,0,9.027,28.618,70.924,6.018c0,0,3.808-0.614,3.994,2.582c0,0,81.543-15.475,107.584-14.738
			c0,0,0.486,3.191,10.065-16.212c9.579-19.409,14.251-27.264,14.251-27.264S2130.101,544.644,2152.944,549.309z"/>
		<path style="fill:#D25C2A;" d="M1960.748,455.686c0,0,17.157,17.065,12.114,33.276c-5.044,16.211,3.11,48.466,25.223,52.15
			c22.112,3.685,48.398-71.057,19.303-85.426c-29.096-14.369-76.641-21.475-90.995-3.422c-14.354,18.053-8.836,40.879-8.836,40.879
			S1937.472,454.581,1960.748,455.686z"/>
		<path style="opacity:0.2;fill:#D1872B;" d="M2041.434,867.395c-0.067,0.921-0.281,1.761-0.635,2.52
			c-37.963-5.07-89.301-96.294-96.633-109.123c-7.862-13.75,39.791-108.07,51.581-112.005c3.831-1.274,7.354-0.582,10.36,0.936
			c-0.523,0.243-0.885,0.508-1.024,0.789c-0.987,1.96-24.272,80.901-24.811,101.563
			C1979.904,766.2,2042.17,857.079,2041.434,867.395z"/>
		<path style="opacity:0.2;fill:#D1872B;" d="M1859.669,608.996c0.235,9.719-3.412,13.721-7.259,15.261
			c0-0.007,0.008-0.022,0.015-0.029c0,0,2.211-4.421-1.474-13.632c-3.685-9.211-30.58-106.11-26.527-135.216
			c0,0,11.053-53.423,16.211-61.529c0,0,3.78,3.581,9.005,8.415c-4.797,12.387-13.787,36.026-17.479,48.692
			C1827.003,488.642,1859.182,588.857,1859.669,608.996z"/>
		<path style="fill:#4F549E;" d="M2116.754,1042.355c-196.601,49.538-258.396,50.827-277.812,46.948
			c62.675-22.244,275.985-47.685,275.985-47.685S2115.656,1041.919,2116.754,1042.355z"/>
	</g>
	<g>
		<g>
			<path style="fill:#C3592D;" d="M2298.699,1473.406c0,0-291.842,70.344-676.781,101.137
				c-107.858,8.623-223.017,14.145-341.121,14.145c-109.869,0-212.014-4.778-305.018-12.393
				c-363.78-29.777-587.793-102.889-587.793-102.889H2298.699z"/>
			<path style="fill:#D25C2A;" d="M1621.918,1574.543c-107.858,8.623-223.017,14.145-341.121,14.145
				c-109.869,0-212.014-4.778-305.018-12.393c82.158-19.592,198.203-31.802,326.825-31.802
				C1427.355,1544.493,1540.271,1555.98,1621.918,1574.543z"/>
		</g>
		<g>
			<path style="fill:#555CA3;" d="M2328.223,1433.452H362.928c-10.791,0-20.601,4.417-27.711,11.527
				c-7.11,7.11-11.528,16.92-11.528,27.711c0,21.583,17.656,39.238,39.239,39.238h287.873L454.307,1854
				c-5.036,8.767-1.66,19.764,7.542,24.562c2.895,1.509,6.019,2.226,9.101,2.226c6.716,0,13.225-3.402,16.677-9.411l206.475-359.447
				h602.907v352.498c0,8.88,7.531,16.078,16.82,16.078s16.82-7.198,16.82-16.078v-352.498h688.409l190.206,359.447
				c3.18,6.009,9.176,9.411,15.362,9.411c2.839,0,5.719-0.717,8.384-2.226c8.477-4.798,11.586-15.795,6.947-24.562l-181.011-342.071
				h269.276c10.792,0,20.602-4.417,27.711-11.527c7.117-7.11,11.527-16.92,11.527-27.711
				C2367.461,1451.107,2349.806,1433.452,2328.223,1433.452z"/>
			<path style="fill:#4F549E;" d="M1151.991,1433.452c170.928,29.845,369.343,59.532,562.883,78.477H362.928
				c-21.582,0-39.239-17.655-39.239-39.238c0-10.791,4.417-20.601,11.527-27.711c7.11-7.11,16.92-11.527,27.711-11.527H1151.991z"/>
		</g>
	</g>
</g>
</svg>
