<svg id="Layer_1" xmlns="http://www.w3.org/2000/svg" x="0px" y="0px" viewBox="0 0 6946 3473">
<path fill="#FFFFFF" opacity="1.000000" stroke="none"
	d="
M6492.000000,3480.000000
	C4328.000000,3480.000000 2166.000000,3480.000000 4.000000,3480.000000
	C4.000000,2321.333252 4.000000,1162.666626 4.000000,4.000001
	C2320.000000,4.000000 4636.000000,4.000000 6952.000000,4.000000
	C6952.000000,1162.666626 6952.000000,2321.333252 6952.000000,3480.000000
	C6799.333496,3480.000000 6646.666504,3480.000000 6492.000000,3480.000000
M4619.554688,2090.485840
	C4623.625977,2092.754883 4627.602539,2095.216553 4631.782715,2097.263184
	C4681.875488,2121.789307 4740.583984,2112.238037 4779.542480,2073.289062
	C4819.326172,2033.514893 4829.286133,1974.170044 4804.602539,1923.874512
	C4802.291016,1919.164307 4799.886719,1914.499634 4796.977051,1908.727661
	C4806.795898,1898.708374 4816.492676,1888.734741 4826.278320,1878.849731
	C4836.125488,1868.903442 4845.872559,1858.846558 4856.011719,1849.205200
	C4865.964355,1839.741455 4874.365723,1828.469727 4886.451660,1821.024170
	C4923.744629,1846.452881 4964.043945,1853.762451 5007.334961,1846.663452
	C5009.124512,1846.370239 5011.107422,1847.255859 5014.159180,1847.798218
	C5032.357910,1890.083130 5050.572754,1932.735107 5067.902344,1975.177856
	C5063.340332,1981.026245 5059.399414,1985.552612 5056.036621,1990.474121
	C5033.144531,2023.977173 5041.389160,2071.487305 5074.206543,2095.839844
	C5106.388184,2119.720947 5152.940430,2114.100098 5178.780273,2083.213379
	C5217.024414,2037.498535 5191.934082,1968.692749 5132.882812,1957.503052
	C5126.467285,1956.287598 5119.934570,1955.692017 5113.523926,1954.817993
	C5095.321777,1911.685547 5077.490234,1869.430664 5059.605469,1827.049561
	C5069.366211,1818.371826 5078.796387,1810.933716 5087.066895,1802.375244
	C5095.761230,1793.378540 5103.345703,1783.309570 5111.225098,1773.934937
	C5134.981445,1780.518677 5224.066895,1815.279541 5237.745605,1823.231079
	C5245.200684,1869.781738 5268.119141,1896.026489 5305.363281,1900.662720
	C5341.092773,1905.110474 5374.167480,1886.052734 5387.380371,1853.403809
	C5400.014648,1822.185181 5390.647949,1785.642822 5364.452637,1764.868896
	C5350.450684,1753.764771 5334.460449,1748.121948 5316.470703,1747.515991
	C5292.083008,1746.694702 5273.117676,1758.087769 5255.751465,1774.567017
	C5234.128906,1766.329346 5212.941895,1758.535156 5191.973633,1750.191162
	C5171.120605,1741.892700 5149.579102,1735.160889 5129.762207,1725.069458
	C5129.762207,1721.784424 5129.504883,1719.776001 5129.800293,1717.852539
	C5135.608887,1680.075073 5128.060547,1645.028687 5108.513184,1612.359985
	C5106.569824,1609.112183 5105.249023,1605.491943 5103.911621,1602.627563
	C5105.407227,1600.486938 5106.022461,1599.260986 5106.942871,1598.338745
	C5147.426758,1557.765137 5187.912109,1517.192871 5228.501953,1476.725098
	C5231.212402,1474.022583 5234.740723,1472.140137 5237.691895,1470.017822
	C5252.920898,1477.497925 5267.910645,1482.820068 5284.194336,1483.627075
	C5350.443359,1486.910400 5403.323730,1427.514893 5391.236816,1362.168091
	C5380.327637,1303.187134 5327.762695,1272.449219 5279.639648,1277.544312
	C5206.585449,1285.278931 5168.630859,1360.615356 5194.979004,1421.122437
	C5196.795410,1425.294434 5198.447266,1429.538086 5200.001465,1433.323853
	C5180.381348,1456.318481 5078.103516,1557.563354 5066.140625,1565.950439
	C5065.534180,1565.731689 5064.893066,1565.578735 5064.327637,1565.282104
	C5062.559570,1564.354980 5060.799316,1563.408936 5059.072266,1562.407837
	C4999.495605,1527.874756 4941.238281,1530.182373 4884.213379,1568.567627
	C4881.073242,1570.681519 4877.536621,1572.207031 4873.840332,1574.191284
	C4853.411621,1556.818115 4833.607910,1540.027466 4813.893555,1523.133179
	C4811.925293,1521.446655 4810.496582,1519.130981 4808.271973,1516.450317
	C4818.891113,1491.876709 4821.508301,1466.563232 4813.044434,1440.640137
	C4804.366211,1414.060791 4787.856934,1393.872437 4763.299316,1380.642944
	C4720.596191,1357.638794 4667.764648,1367.953491 4636.259277,1405.067261
	C4604.467773,1442.518066 4603.440918,1497.901245 4634.071777,1536.012573
	C4649.203613,1554.840698 4668.842285,1566.658569 4692.326660,1572.322510
	C4721.981934,1579.474487 4748.984863,1572.501587 4773.979004,1557.058472
	C4788.937500,1566.391846 4830.808594,1602.032837 4841.677734,1614.755127
	C4811.160156,1672.312012 4813.719238,1729.302490 4848.729980,1784.058105
	C4836.041016,1799.910522 4772.901367,1862.697998 4760.549316,1871.941162
	C4759.883789,1871.906982 4759.116211,1872.077637 4758.569336,1871.805176
	C4755.000488,1870.026733 4751.486328,1868.139282 4747.941895,1866.311035
	C4718.833984,1851.296875 4688.385742,1848.093384 4656.730469,1856.157227
	C4588.504395,1873.536743 4547.021484,1941.756958 4562.937988,2010.202393
	C4570.694824,2043.557861 4588.937988,2069.629395 4619.554688,2090.485840
M4051.540771,1855.595581
	C4034.510498,1859.128906 4017.315918,1860.688721 3999.917969,1860.087646
	C3985.790771,1859.599731 3972.072510,1857.105347 3959.209229,1851.183228
	C3934.697754,1839.898438 3919.544189,1814.652710 3921.750732,1787.846680
	C3983.426758,1787.846680 4045.235352,1787.846680 4106.279785,1787.846680
	C4107.677246,1785.350342 4108.770020,1784.253418 4108.890137,1783.058716
	C4112.472656,1747.373413 4109.503906,1712.456543 4094.380615,1679.523193
	C4082.468994,1653.584961 4062.668213,1635.272095 4035.959229,1625.078003
	C4012.472656,1616.113525 3987.949463,1613.505981 3963.242188,1617.879028
	C3906.940186,1627.844482 3872.373535,1662.333618 3856.445068,1716.132202
	C3847.599854,1746.006714 3847.447266,1776.698364 3853.010986,1807.193970
	C3863.747070,1866.038574 3901.698730,1904.866577 3958.798096,1915.362793
	C4000.277100,1922.987549 4041.034912,1918.344238 4081.028320,1905.818237
	C4084.579834,1904.705811 4087.694580,1902.197998 4091.326416,1900.162231
	C4088.393066,1882.386963 4085.605713,1865.497192 4082.609131,1847.339722
	C4072.462158,1850.092529 4063.621094,1852.491211 4051.540771,1855.595581
M4195.391602,1898.810181
	C4218.143066,1913.424561 4243.743164,1916.845337 4269.958008,1917.549683
	C4308.081543,1918.574341 4345.753418,1914.343506 4383.102539,1907.019775
	C4386.758301,1906.302979 4390.114746,1904.064819 4393.571289,1902.549805
	C4393.571289,1841.691284 4393.872070,1781.758423 4393.326172,1721.833008
	C4393.211914,1709.326538 4390.896484,1696.626099 4387.975098,1684.402344
	C4381.129883,1655.759521 4363.084473,1636.351929 4335.769531,1625.767700
	C4328.372070,1622.901245 4320.555664,1620.736816 4312.734863,1619.403320
	C4271.910645,1612.442017 4231.827148,1616.705933 4192.342285,1628.313843
	C4191.248047,1628.635498 4190.441895,1629.936890 4187.681641,1632.415894
	C4193.003418,1647.854614 4190.085938,1666.173950 4198.501953,1682.600098
	C4222.845703,1676.305908 4246.441406,1672.089355 4270.585449,1672.958618
	C4279.154785,1673.267090 4287.951172,1674.291382 4296.134766,1676.711548
	C4310.334961,1680.911133 4320.266113,1690.381714 4324.959473,1704.793457
	C4328.511719,1715.701660 4330.159180,1726.690063 4326.712402,1738.512817
	C4322.492676,1737.994141 4318.580566,1737.599854 4314.695801,1737.021729
	C4292.818359,1733.766724 4270.899414,1733.382324 4248.974609,1736.310181
	C4231.005371,1738.709595 4213.747559,1743.451294 4198.179688,1753.141846
	C4183.629395,1762.198730 4172.645508,1774.373535 4166.206543,1790.392334
	C4151.280762,1827.524048 4162.156738,1870.644409 4195.391602,1898.810181
M3218.524170,1862.776245
	C3207.392090,1860.826660 3196.251709,1858.924072 3185.130615,1856.914307
	C3173.537842,1854.819092 3163.112793,1848.118042 3149.933350,1847.172852
	C3146.891357,1866.015869 3139.877930,1883.312622 3140.545654,1902.411987
	C3188.095703,1920.654785 3235.785400,1923.723389 3284.518311,1912.988403
	C3296.342773,1910.383667 3307.401367,1905.796021 3317.555908,1899.266968
	C3330.193359,1891.141724 3339.695068,1880.343018 3345.260986,1866.127808
	C3360.936523,1826.092407 3347.320312,1783.859497 3310.148926,1762.385864
	C3294.686279,1753.453125 3277.594238,1747.321289 3261.170654,1740.079956
	C3252.046387,1736.056885 3242.634521,1732.665894 3233.623535,1728.415039
	C3228.869873,1726.172485 3224.220459,1723.219116 3220.348389,1719.683838
	C3205.662598,1706.274658 3209.020020,1684.870850 3227.322021,1677.334351
	C3234.558350,1674.354858 3242.699707,1672.774780 3250.544678,1672.232666
	C3269.268066,1670.939087 3287.787598,1672.943359 3305.836914,1678.458740
	C3311.444824,1680.172119 3317.109863,1681.698975 3323.650635,1683.569214
	C3325.094727,1679.828003 3326.581787,1676.952881 3327.316162,1673.896851
	C3329.959717,1662.897583 3332.544922,1651.875854 3334.722900,1640.778198
	C3335.434570,1637.152100 3334.834717,1633.268799 3334.834717,1629.985474
	C3297.661621,1616.890869 3265.858154,1614.875244 3239.132812,1616.622559
	C3218.298340,1617.984863 3198.341064,1622.859741 3180.540771,1634.467896
	C3163.686279,1645.459229 3152.154785,1660.236450 3147.292236,1680.087524
	C3137.562012,1719.808472 3151.269043,1753.323364 3186.979736,1773.310059
	C3200.267090,1780.746826 3214.825439,1785.913086 3228.807861,1792.106445
	C3239.750732,1796.953491 3250.877441,1801.431396 3261.569580,1806.779297
	C3266.830566,1809.410645 3271.881836,1813.064453 3275.991943,1817.268555
	C3284.657471,1826.132324 3285.907959,1838.820923 3279.971191,1848.542358
	C3275.859619,1855.274902 3269.372559,1858.343994 3262.055176,1860.143677
	C3248.973877,1863.361572 3235.672607,1863.505371 3218.524170,1862.776245
M3409.066162,1761.991943
	C3409.071777,1774.648193 3408.854248,1787.309326 3409.136230,1799.959351
	C3409.537598,1817.959961 3411.007324,1835.860107 3415.644775,1853.367676
	C3425.196045,1889.426514 3448.812988,1909.851440 3485.185303,1916.316650
	C3507.098633,1920.211792 3529.036133,1920.142700 3550.742432,1915.679077
	C3564.144043,1912.923096 3577.851318,1910.191284 3589.891357,1902.292236
	C3586.489014,1884.455078 3584.818359,1867.438232 3578.019043,1851.343872
	C3569.797119,1853.589355 3562.734619,1855.438599 3555.719482,1857.451294
	C3542.701904,1861.185913 3529.380127,1861.503418 3516.075684,1860.411499
	C3496.934570,1858.841064 3485.106934,1849.226685 3480.566162,1830.756470
	C3478.202148,1821.140015 3476.862305,1811.044678 3476.739258,1801.144775
	C3476.293701,1765.180298 3476.521729,1729.207031 3476.606689,1693.237305
	C3476.615967,1689.342407 3477.346924,1685.449219 3477.842041,1680.585571
	C3489.466553,1679.272949 3500.767822,1679.945068 3512.019531,1679.837036
	C3522.676270,1679.734619 3533.338623,1679.997559 3543.991211,1679.764771
	C3555.116211,1679.521729 3566.369385,1680.859863 3578.538330,1678.496826
	C3579.609863,1659.964722 3580.418945,1642.429199 3577.864502,1623.966064
	C3570.359131,1623.741943 3563.779541,1623.399048 3557.198730,1623.375366
	C3535.217285,1623.296265 3513.234131,1623.444946 3491.254639,1623.227051
	C3486.855957,1623.183594 3482.469727,1621.909424 3477.282227,1621.074707
	C3477.010498,1613.491577 3476.609375,1606.941162 3476.573242,1600.388794
	C3476.477783,1583.070435 3476.613037,1565.750610 3476.483154,1548.432739
	C3476.455078,1544.672485 3477.530029,1540.378784 3473.446777,1537.715698
	C3441.239990,1540.415161 3421.457520,1544.325073 3409.066895,1550.707520
	C3409.066895,1619.503906 3409.066895,1688.749634 3409.066162,1761.991943
M2191.694580,1841.988770
	C2191.694580,1864.584595 2191.694580,1887.180542 2191.694580,1910.062622
	C2204.130127,1912.086060 2215.125244,1911.748779 2227.186768,1910.534424
	C2227.475098,1902.804199 2227.924805,1896.290771 2227.929688,1889.777100
	C2227.980957,1821.152222 2227.934326,1752.527222 2228.011475,1683.902344
	C2228.017822,1678.121094 2228.722656,1672.340454 2229.113770,1666.399292
	C2258.459229,1656.971069 2286.987793,1652.200439 2316.678467,1655.820557
	C2343.983887,1659.149902 2361.888428,1673.586060 2370.298340,1699.752563
	C2371.312988,1702.909790 2371.927246,1706.194824 2372.743652,1709.416382
	C2377.539551,1728.339233 2377.571777,1747.711182 2377.694824,1767.001709
	C2377.966797,1809.640747 2377.735840,1852.282715 2377.841064,1894.923218
	C2377.853760,1900.069214 2378.677490,1905.213013 2379.148438,1910.623291
	C2390.916992,1910.623291 2401.411133,1910.623291 2412.672119,1910.623291
	C2413.240479,1906.122192 2414.144043,1902.267578 2414.151123,1898.411377
	C2414.243652,1848.441895 2414.426514,1798.470825 2414.094727,1748.503418
	C2413.970703,1729.858276 2412.612305,1711.184570 2407.709961,1693.058228
	C2397.329346,1654.677246 2372.733643,1631.481445 2333.524414,1623.650146
	C2302.685547,1617.490601 2272.580322,1620.994507 2242.676758,1629.156616
	C2238.335449,1630.341553 2233.914551,1631.234863 2227.961426,1632.631226
	C2227.961426,1621.346558 2227.961426,1611.464478 2227.961426,1601.582397
	C2227.961426,1591.588501 2227.961426,1581.594604 2227.961426,1571.600708
	C2227.961426,1562.273071 2227.961426,1552.945312 2227.961426,1543.617676
	C2227.961426,1533.623779 2228.153809,1523.625122 2227.906982,1513.637329
	C2227.665771,1503.888794 2229.071777,1493.990845 2226.659912,1482.971313
	C2214.604492,1485.240479 2203.721924,1487.288818 2191.695068,1489.552612
	C2191.695068,1606.341797 2191.695068,1722.167114 2191.694580,1841.988770
M1743.807861,1916.515015
	C1775.874146,1917.919189 1807.305298,1915.863525 1836.502197,1900.525391
	C1836.653076,1889.531616 1833.529053,1880.335815 1830.481323,1870.056641
	C1825.035767,1871.874634 1820.708252,1873.242188 1816.433716,1874.758789
	C1786.794434,1885.276733 1756.572754,1886.465942 1726.001099,1880.004028
	C1707.923706,1876.182983 1692.204590,1867.854492 1680.703857,1852.997192
	C1663.761963,1831.110352 1658.285278,1805.705444 1657.522705,1776.698608
	C1680.342773,1775.509033 1702.104370,1776.245361 1723.824951,1776.119751
	C1745.788818,1775.992920 1767.754028,1776.091797 1789.718628,1776.091797
	C1811.570557,1776.091797 1833.422363,1776.091919 1854.479004,1776.091919
	C1855.879761,1773.659668 1856.977417,1772.606445 1857.067749,1771.472778
	C1859.531982,1740.577881 1856.801147,1710.371948 1844.572021,1681.525391
	C1835.107910,1659.200928 1819.439453,1642.549561 1797.821411,1631.665161
	C1755.937378,1610.577637 1689.916016,1614.451294 1651.572998,1663.438354
	C1638.259521,1680.447388 1628.834961,1699.447510 1624.014893,1720.442139
	C1615.984863,1755.419067 1616.536743,1790.595825 1625.475830,1825.226807
	C1636.647461,1868.506958 1663.983032,1897.401733 1706.975830,1910.403687
	C1717.692261,1913.644409 1729.151855,1914.428101 1743.807861,1916.515015
M2804.029541,1794.758667
	C2805.473389,1802.598145 2806.397705,1810.576050 2808.442383,1818.255615
	C2826.237061,1885.090698 2876.032227,1915.007568 2923.839355,1917.861450
	C2977.988037,1921.093628 3024.954346,1893.736816 3047.839111,1844.532227
	C3056.364990,1826.200806 3060.805908,1806.799194 3062.486572,1786.845337
	C3065.687256,1748.851929 3059.915283,1712.483154 3039.999512,1679.327515
	C2995.533936,1605.300781 2894.842041,1602.918579 2843.704834,1656.002319
	C2825.688477,1674.704346 2814.470947,1696.976196 2808.056152,1721.871338
	C2802.170898,1744.713867 2802.218262,1767.953247 2804.029541,1794.758667
M2505.379883,1789.999146
	C2505.522705,1828.637695 2505.650635,1867.276245 2505.879639,1905.914307
	C2505.886963,1907.084351 2506.949463,1908.248169 2508.007812,1910.411987
	C2518.417480,1911.951416 2529.286865,1912.073975 2541.066650,1910.149048
	C2541.312500,1902.535156 2541.705078,1895.961914 2541.709473,1889.388428
	C2541.754395,1820.753174 2541.684570,1752.117798 2541.815918,1683.482788
	C2541.829346,1676.370972 2540.288086,1668.936523 2544.256104,1661.354980
	C2574.887207,1653.686523 2606.007568,1652.160156 2637.158691,1656.845093
	C2658.361084,1660.033569 2673.622559,1672.593384 2681.572754,1692.825317
	C2684.468994,1700.195679 2686.973633,1707.986816 2687.928955,1715.797363
	C2689.864258,1731.625610 2691.516113,1747.588013 2691.691650,1763.512695
	C2692.182861,1808.153564 2691.827881,1852.803467 2691.924316,1897.449463
	C2691.933594,1901.791016 2692.759033,1906.130737 2693.221924,1910.629639
	C2705.209229,1910.629639 2715.726807,1910.629639 2726.799072,1910.629639
	C2727.306885,1907.477783 2728.066650,1904.958130 2728.067383,1902.438354
	C2728.083008,1847.797363 2728.137207,1793.155762 2727.889160,1738.515747
	C2727.810303,1721.111572 2724.834473,1703.971802 2719.635986,1687.403931
	C2709.500977,1655.103882 2688.217529,1633.639038 2655.167969,1625.292725
	C2643.648193,1622.383545 2631.517334,1621.212280 2619.601562,1620.681885
	C2584.712158,1619.128662 2550.572021,1624.781860 2516.827881,1633.107422
	C2513.065186,1634.035767 2509.566650,1636.034912 2505.380127,1637.772217
	C2505.380127,1687.423340 2505.380127,1736.711182 2505.379883,1789.999146
M3657.591553,1632.407593
	C3653.357910,1634.148682 3649.124268,1635.889893 3644.781982,1637.675659
	C3644.412598,1640.813599 3643.836670,1643.426636 3643.835449,1646.040039
	C3643.791992,1731.270874 3643.783936,1816.501587 3643.891846,1901.732300
	C3643.895508,1904.790771 3645.133545,1907.847534 3646.055664,1912.101929
	C3667.842041,1910.591675 3688.861816,1913.969727 3711.085938,1909.857544
	C3711.103516,1890.322632 3711.126953,1871.776855 3711.135010,1853.231201
	C3711.143311,1833.921021 3711.136475,1814.610962 3711.136475,1795.300781
	C3711.136475,1776.656494 3711.060059,1758.011963 3711.157959,1739.368164
	C3711.258789,1720.193970 3710.682373,1700.991699 3711.631592,1681.130005
	C3744.289551,1671.072876 3775.564209,1674.954590 3807.448975,1682.835693
	C3813.178711,1664.104736 3816.668701,1646.230103 3818.771240,1628.215210
	C3815.893311,1626.728027 3814.238037,1625.429688 3812.376709,1624.977417
	C3785.686279,1618.488647 3758.741943,1615.396240 3731.202148,1617.917358
	C3707.231201,1620.111816 3683.776123,1624.565186 3657.591553,1632.407593
M1440.243896,1889.612427
	C1451.476074,1904.097900 1466.945679,1911.671631 1484.397095,1914.641113
	C1504.165771,1918.005127 1524.187622,1918.395386 1543.926758,1913.741943
	C1556.806763,1910.705444 1569.615234,1907.279053 1581.104004,1899.284424
	C1580.544067,1888.991089 1576.752686,1880.072021 1573.043701,1870.021973
	C1567.644165,1872.176025 1563.377197,1873.767578 1559.198608,1875.564697
	C1541.625977,1883.122803 1523.206299,1885.069092 1504.398926,1883.260132
	C1479.104370,1880.827148 1465.674194,1869.163330 1460.467407,1844.328857
	C1458.158813,1833.318604 1456.834351,1821.907837 1456.731323,1810.663452
	C1456.297852,1763.362549 1456.456909,1716.055786 1456.530640,1668.751343
	C1456.536499,1664.993286 1457.547485,1661.236938 1458.186646,1656.820801
	C1495.573120,1654.973022 1532.065674,1657.143433 1569.113281,1655.524170
	C1569.987671,1645.031006 1572.353882,1635.401489 1566.998901,1625.676758
	C1535.916260,1625.676758 1505.282471,1625.755005 1474.649780,1625.607910
	C1468.827026,1625.579956 1462.624512,1627.061890 1456.711914,1622.397827
	C1455.915283,1594.505371 1457.036865,1566.017334 1456.037598,1536.222900
	C1443.234619,1538.645996 1431.372192,1538.448486 1420.233276,1544.470337
	C1420.233276,1548.236938 1420.233154,1551.541138 1420.233276,1554.845337
	C1420.235474,1638.795044 1420.227295,1722.744629 1420.261963,1806.694336
	C1420.264404,1812.687256 1420.213379,1818.718018 1420.821167,1824.666382
	C1423.057373,1846.553223 1425.118652,1868.538940 1440.243896,1889.612427
M2097.932617,1623.931274
	C2081.601562,1620.014893 2064.971436,1619.426270 2048.313965,1619.951660
	C1995.247559,1621.625000 1957.740967,1646.780518 1935.760986,1695.106567
	C1926.232056,1716.057373 1922.571167,1738.380005 1921.726929,1761.055542
	C1920.576172,1791.970703 1924.767456,1822.086792 1938.729370,1850.263062
	C1955.115234,1883.330688 1981.286377,1903.885986 2017.075806,1912.660522
	C2040.110474,1918.307983 2063.411133,1918.166870 2086.482666,1914.808960
	C2101.958984,1912.556519 2117.864014,1909.798340 2131.945068,1900.249634
	C2129.426758,1890.419922 2128.945068,1880.498657 2123.372070,1870.524902
	C2118.638916,1872.340210 2114.462891,1873.998413 2110.247559,1875.549194
	C2083.870605,1885.252808 2056.919434,1886.593872 2029.769409,1879.893555
	C2001.507935,1872.919067 1980.238403,1856.439941 1970.208984,1828.799561
	C1955.130493,1787.243530 1955.943115,1745.364014 1972.160645,1704.050049
	C1973.845703,1699.757324 1976.267456,1695.697754 1978.745850,1691.782104
	C1991.132568,1672.210693 2008.792969,1660.366333 2031.495850,1655.728638
	C2047.331177,1652.493896 2063.244873,1651.659424 2079.109375,1654.457031
	C2092.023438,1656.734253 2104.738525,1660.140991 2118.167236,1663.188843
	C2121.662598,1653.526367 2125.652588,1644.009033 2126.254883,1632.395386
	C2117.533447,1629.620117 2109.389648,1627.028442 2097.932617,1623.931274
M4942.088867,1503.570679
	C4976.714844,1503.570679 5011.341309,1503.570679 5045.559082,1503.570679
	C5062.640625,1486.704956 5079.557617,1470.704468 5095.650391,1453.913452
	C5111.646484,1437.223511 5128.749023,1421.497437 5144.003906,1403.036865
	C5138.681152,1398.072021 5134.404785,1394.083374 5129.276367,1389.299927
	C5123.951660,1394.483765 5119.155273,1398.962036 5114.571289,1403.648926
	C5092.681641,1426.031372 5070.567871,1448.206055 5049.149902,1471.032715
	C5041.676270,1478.997925 5033.755859,1482.174683 5022.892578,1482.025269
	C4984.929688,1481.502686 4946.955078,1481.778198 4908.984863,1481.889893
	C4904.552246,1481.902954 4900.121094,1482.784790 4894.658691,1483.375366
	C4894.990234,1490.266846 4895.268066,1496.028809 4895.599121,1502.899292
	C4910.454102,1504.170654 4924.322266,1503.301880 4942.088867,1503.570679
M4763.261230,1628.846313
	C4760.507324,1659.331543 4757.420410,1689.792236 4755.186035,1720.315552
	C4754.438477,1730.527344 4750.525391,1737.438843 4742.274902,1743.460205
	C4714.863281,1763.464722 4687.888184,1784.067993 4660.820312,1804.540283
	C4656.731934,1807.632812 4653.040039,1811.249512 4649.202637,1814.590942
	C4652.414551,1821.584351 4655.018555,1827.637451 4662.502930,1829.851196
	C4666.836914,1826.709839 4671.181152,1823.657104 4675.424316,1820.469238
	C4705.750488,1797.687744 4735.989746,1774.790161 4766.424805,1752.155762
	C4772.315430,1747.775146 4774.842285,1742.390869 4775.293945,1735.275024
	C4776.052246,1723.324707 4777.323730,1711.407471 4778.346680,1699.473511
	C4780.676270,1672.291382 4783.022461,1645.110352 4785.222168,1617.917603
	C4785.364746,1616.158569 4784.322754,1614.303833 4783.572754,1611.538818
	C4777.618164,1611.538818 4771.913574,1611.538818 4765.270996,1611.538818
	C4764.654297,1616.504639 4764.095703,1620.998169 4763.261230,1628.846313
z"/>
<path fill="#0769C7" opacity="1.000000" stroke="none"
	d="
M4618.363281,2089.661133
	C4588.937988,2069.629395 4570.694824,2043.557861 4562.937988,2010.202393
	C4547.021484,1941.756958 4588.504395,1873.536743 4656.730469,1856.157227
	C4688.385742,1848.093384 4718.833984,1851.296875 4747.941895,1866.311035
	C4751.486328,1868.139282 4755.000488,1870.026733 4758.569336,1871.805176
	C4759.116211,1872.077637 4759.883789,1871.906982 4760.549316,1871.941162
	C4772.901367,1862.697998 4836.041016,1799.910522 4848.729980,1784.058105
	C4813.719238,1729.302490 4811.160156,1672.312012 4841.677734,1614.755127
	C4830.808594,1602.032837 4788.937500,1566.391846 4773.979004,1557.058472
	C4748.984863,1572.501587 4721.981934,1579.474487 4692.326660,1572.322510
	C4668.842285,1566.658569 4649.203613,1554.840698 4634.071777,1536.012573
	C4603.440918,1497.901245 4604.467773,1442.518066 4636.259277,1405.067261
	C4667.764648,1367.953491 4720.596191,1357.638794 4763.299316,1380.642944
	C4787.856934,1393.872437 4804.366211,1414.060791 4813.044434,1440.640137
	C4821.508301,1466.563232 4818.891113,1491.876709 4808.271973,1516.450317
	C4810.496582,1519.130981 4811.925293,1521.446655 4813.893555,1523.133179
	C4833.607910,1540.027466 4853.411621,1556.818115 4873.840332,1574.191284
	C4877.536621,1572.207031 4881.073242,1570.681519 4884.213379,1568.567627
	C4941.238281,1530.182373 4999.495605,1527.874756 5059.072266,1562.407837
	C5060.799316,1563.408936 5062.559570,1564.354980 5064.327637,1565.282104
	C5064.893066,1565.578735 5065.534180,1565.731689 5066.140625,1565.950439
	C5078.103516,1557.563354 5180.381348,1456.318481 5200.001465,1433.323853
	C5198.447266,1429.538086 5196.795410,1425.294434 5194.979004,1421.122437
	C5168.630859,1360.615356 5206.585449,1285.278931 5279.639648,1277.544312
	C5327.762695,1272.449219 5380.327637,1303.187134 5391.236816,1362.168091
	C5403.323730,1427.514893 5350.443359,1486.910400 5284.194336,1483.627075
	C5267.910645,1482.820068 5252.920898,1477.497925 5237.691895,1470.017822
	C5234.740723,1472.140137 5231.212402,1474.022583 5228.501953,1476.725098
	C5187.912109,1517.192871 5147.426758,1557.765137 5106.942871,1598.338745
	C5106.022461,1599.260986 5105.407227,1600.486938 5103.911621,1602.627563
	C5105.249023,1605.491943 5106.569824,1609.112183 5108.513184,1612.359985
	C5128.060547,1645.028687 5135.608887,1680.075073 5129.800293,1717.852539
	C5129.504883,1719.776001 5129.762207,1721.784424 5129.762207,1725.069458
	C5149.579102,1735.160889 5171.120605,1741.892700 5191.973633,1750.191162
	C5212.941895,1758.535156 5234.128906,1766.329346 5255.751465,1774.567017
	C5273.117676,1758.087769 5292.083008,1746.694702 5316.470703,1747.515991
	C5334.460449,1748.121948 5350.450684,1753.764771 5364.452637,1764.868896
	C5390.647949,1785.642822 5400.014648,1822.185181 5387.380371,1853.403809
	C5374.167480,1886.052734 5341.092773,1905.110474 5305.363281,1900.662720
	C5268.119141,1896.026489 5245.200684,1869.781738 5237.745605,1823.231079
	C5224.066895,1815.279541 5134.981445,1780.518677 5111.225098,1773.934937
	C5103.345703,1783.309570 5095.761230,1793.378540 5087.066895,1802.375244
	C5078.796387,1810.933716 5069.366211,1818.371826 5059.605469,1827.049561
	C5077.490234,1869.430664 5095.321777,1911.685547 5113.523926,1954.817993
	C5119.934570,1955.692017 5126.467285,1956.287598 5132.882812,1957.503052
	C5191.934082,1968.692749 5217.024414,2037.498535 5178.780273,2083.213379
	C5152.940430,2114.100098 5106.388184,2119.720947 5074.206543,2095.839844
	C5041.389160,2071.487305 5033.144531,2023.977173 5056.036621,1990.474121
	C5059.399414,1985.552612 5063.340332,1981.026245 5067.902344,1975.177856
	C5050.572754,1932.735107 5032.357910,1890.083130 5014.159180,1847.798218
	C5011.107422,1847.255859 5009.124512,1846.370239 5007.334961,1846.663452
	C4964.043945,1853.762451 4923.744629,1846.452881 4886.451660,1821.024170
	C4874.365723,1828.469727 4865.964355,1839.741455 4856.011719,1849.205200
	C4845.872559,1858.846558 4836.125488,1868.903442 4826.278320,1878.849731
	C4816.492676,1888.734741 4806.795898,1898.708374 4796.977051,1908.727661
	C4799.886719,1914.499634 4802.291016,1919.164307 4804.602539,1923.874512
	C4829.286133,1974.170044 4819.326172,2033.514893 4779.542480,2073.289062
	C4740.583984,2112.238037 4681.875488,2121.789307 4631.782715,2097.263184
	C4627.602539,2095.216553 4623.625977,2092.754883 4618.363281,2089.661133
M4875.210938,1725.193604
	C4877.396973,1730.745605 4879.146484,1736.519531 4881.837402,1741.814819
	C4905.415527,1788.216187 4959.354004,1810.813721 5008.631836,1794.721436
	C5059.221191,1778.201050 5088.027832,1727.841797 5081.018555,1679.789795
	C5073.958008,1631.386841 5034.884277,1592.930054 4986.803711,1588.388184
	C4938.012207,1583.779053 4892.043457,1613.129272 4876.203125,1659.175659
	C4869.085938,1679.864990 4868.885254,1700.871338 4875.210938,1725.193604
M4680.091797,1901.971313
	C4675.516113,1902.880005 4670.819824,1903.396240 4666.383301,1904.757446
	C4618.284180,1919.513794 4602.199219,1967.933228 4611.295410,2000.466431
	C4620.427734,2033.128174 4647.887695,2057.541016 4680.873047,2060.509277
	C4719.180664,2063.956787 4750.011719,2041.664551 4762.564941,2011.673218
	C4775.829590,1979.980835 4766.852539,1943.164062 4740.601074,1920.787964
	C4724.099609,1906.722290 4704.840332,1900.681274 4680.091797,1901.971313
M5267.528320,1331.698364
	C5264.098633,1333.724121 5260.393555,1335.398804 5257.283203,1337.832520
	C5237.634277,1353.208740 5230.849609,1378.107178 5240.025391,1400.407837
	C5249.619141,1423.725830 5272.445801,1436.545044 5298.019531,1432.976440
	C5324.532227,1429.277100 5344.671875,1405.093384 5343.550781,1378.303711
	C5342.421387,1351.315918 5320.752441,1328.611816 5293.985352,1327.435181
	C5286.211914,1327.093506 5278.323730,1329.379395 5267.528320,1331.698364
M4667.800293,1497.161377
	C4678.361328,1515.341919 4693.919434,1525.063843 4715.174316,1525.005371
	C4742.625977,1524.929932 4765.584473,1504.413208 4768.124023,1477.771484
	C4770.754395,1450.174683 4753.052734,1425.177856 4727.045410,1419.764282
	C4698.886719,1413.902710 4672.517090,1429.005615 4663.854980,1455.629639
	C4659.496582,1469.024292 4660.653809,1481.836182 4667.800293,1497.161377
M5118.533203,2006.089844
	C5113.583496,2007.864258 5108.059082,2008.769775 5103.799316,2011.587524
	C5093.859375,2018.162842 5089.983887,2030.729736 5093.510742,2041.510498
	C5097.237305,2052.903076 5107.003906,2060.323486 5118.819824,2060.740234
	C5131.485840,2061.186768 5142.109863,2053.793213 5146.219727,2041.672852
	C5149.843750,2030.983765 5146.059570,2018.367554 5136.166504,2011.696899
	C5131.934082,2008.843140 5126.409668,2007.904419 5118.533203,2006.089844
M5329.320312,1848.376587
	C5332.640137,1845.178467 5336.688965,1842.455811 5339.142090,1838.692627
	C5346.288574,1827.728394 5344.728027,1815.200928 5335.776367,1805.714233
	C5327.559082,1797.005859 5315.528809,1794.621948 5304.720703,1799.559692
	C5293.867188,1804.518433 5287.316406,1815.405518 5288.330078,1826.800537
	C5289.392090,1838.738037 5298.955566,1849.781616 5310.946289,1851.428833
	C5315.975098,1852.119507 5321.331543,1850.424561 5329.320312,1848.376587
z"/>
<path fill="#0568C7" opacity="1.000000" stroke="none"
	d="
M4053.160156,1855.242676
	C4063.621094,1852.491211 4072.462158,1850.092529 4082.609131,1847.339722
	C4085.605713,1865.497192 4088.393066,1882.386963 4091.326416,1900.162231
	C4087.694580,1902.197998 4084.579834,1904.705811 4081.028320,1905.818237
	C4041.034912,1918.344238 4000.277100,1922.987549 3958.798096,1915.362793
	C3901.698730,1904.866577 3863.747070,1866.038574 3853.010986,1807.193970
	C3847.447266,1776.698364 3847.599854,1746.006714 3856.445068,1716.132202
	C3872.373535,1662.333618 3906.940186,1627.844482 3963.242188,1617.879028
	C3987.949463,1613.505981 4012.472656,1616.113525 4035.959229,1625.078003
	C4062.668213,1635.272095 4082.468994,1653.584961 4094.380615,1679.523193
	C4109.503906,1712.456543 4112.472656,1747.373413 4108.890137,1783.058716
	C4108.770020,1784.253418 4107.677246,1785.350342 4106.279785,1787.846680
	C4045.235352,1787.846680 3983.426758,1787.846680 3921.750732,1787.846680
	C3919.544189,1814.652710 3934.697754,1839.898438 3959.209229,1851.183228
	C3972.072510,1857.105347 3985.790771,1859.599731 3999.917969,1860.087646
	C4017.315918,1860.688721 4034.510498,1859.128906 4053.160156,1855.242676
M3947.154785,1684.621948
	C3936.657959,1692.377930 3929.396729,1702.705322 3925.455322,1714.905029
	C3923.151367,1722.036377 3918.250732,1729.258789 3921.801514,1737.254150
	C3923.648682,1737.820801 3924.905273,1738.540161 3926.164062,1738.543823
	C3962.676270,1738.650024 3999.188721,1738.728027 4035.700928,1738.629272
	C4038.026367,1738.623047 4040.347900,1737.155396 4043.032715,1736.244873
	C4043.368896,1723.815430 4040.286865,1713.040161 4035.236084,1702.939087
	C4025.832520,1684.132324 4010.060791,1674.301025 3989.307373,1672.636353
	C3974.993408,1671.488159 3961.607666,1674.687988 3947.154785,1684.621948
z"/>
<path fill="#0568C7" opacity="1.000000" stroke="none"
	d="
M4194.233887,1897.951172
	C4162.156738,1870.644409 4151.280762,1827.524048 4166.206543,1790.392334
	C4172.645508,1774.373535 4183.629395,1762.198730 4198.179688,1753.141846
	C4213.747559,1743.451294 4231.005371,1738.709595 4248.974609,1736.310181
	C4270.899414,1733.382324 4292.818359,1733.766724 4314.695801,1737.021729
	C4318.580566,1737.599854 4322.492676,1737.994141 4326.712402,1738.512817
	C4330.159180,1726.690063 4328.511719,1715.701660 4324.959473,1704.793457
	C4320.266113,1690.381714 4310.334961,1680.911133 4296.134766,1676.711548
	C4287.951172,1674.291382 4279.154785,1673.267090 4270.585449,1672.958618
	C4246.441406,1672.089355 4222.845703,1676.305908 4198.501953,1682.600098
	C4190.085938,1666.173950 4193.003418,1647.854614 4187.681641,1632.415894
	C4190.441895,1629.936890 4191.248047,1628.635498 4192.342285,1628.313843
	C4231.827148,1616.705933 4271.910645,1612.442017 4312.734863,1619.403320
	C4320.555664,1620.736816 4328.372070,1622.901245 4335.769531,1625.767700
	C4363.084473,1636.351929 4381.129883,1655.759521 4387.975098,1684.402344
	C4390.896484,1696.626099 4393.211914,1709.326538 4393.326172,1721.833008
	C4393.872070,1781.758423 4393.571289,1841.691284 4393.571289,1902.549805
	C4390.114746,1904.064819 4386.758301,1906.302979 4383.102539,1907.019775
	C4345.753418,1914.343506 4308.081543,1918.574341 4269.958008,1917.549683
	C4243.743164,1916.845337 4218.143066,1913.424561 4194.233887,1897.951172
M4258.208496,1861.496826
	C4280.883789,1865.809082 4309.862793,1865.127686 4326.862305,1859.882446
	C4329.359375,1844.359009 4329.414551,1805.522339 4326.926270,1788.686768
	C4325.324219,1787.865112 4323.684082,1786.557861 4321.845703,1786.152588
	C4302.153809,1781.810425 4282.297852,1781.985474 4262.572754,1785.402100
	C4256.194336,1786.507080 4249.838867,1789.307373 4244.157227,1792.535645
	C4233.646484,1798.507324 4228.223633,1807.925049 4227.665527,1820.244995
	C4226.694824,1841.639771 4233.243652,1851.523315 4258.208496,1861.496826
z"/>
<path fill="#0769C7" opacity="1.000000" stroke="none"
	d="
M3220.424316,1862.900879
	C3235.672607,1863.505371 3248.973877,1863.361572 3262.055176,1860.143677
	C3269.372559,1858.343994 3275.859619,1855.274902 3279.971191,1848.542358
	C3285.907959,1838.820923 3284.657471,1826.132324 3275.991943,1817.268555
	C3271.881836,1813.064453 3266.830566,1809.410645 3261.569580,1806.779297
	C3250.877441,1801.431396 3239.750732,1796.953491 3228.807861,1792.106445
	C3214.825439,1785.913086 3200.267090,1780.746826 3186.979736,1773.310059
	C3151.269043,1753.323364 3137.562012,1719.808472 3147.292236,1680.087524
	C3152.154785,1660.236450 3163.686279,1645.459229 3180.540771,1634.467896
	C3198.341064,1622.859741 3218.298340,1617.984863 3239.132812,1616.622559
	C3265.858154,1614.875244 3297.661621,1616.890869 3334.834717,1629.985474
	C3334.834717,1633.268799 3335.434570,1637.152100 3334.722900,1640.778198
	C3332.544922,1651.875854 3329.959717,1662.897583 3327.316162,1673.896851
	C3326.581787,1676.952881 3325.094727,1679.828003 3323.650635,1683.569214
	C3317.109863,1681.698975 3311.444824,1680.172119 3305.836914,1678.458740
	C3287.787598,1672.943359 3269.268066,1670.939087 3250.544678,1672.232666
	C3242.699707,1672.774780 3234.558350,1674.354858 3227.322021,1677.334351
	C3209.020020,1684.870850 3205.662598,1706.274658 3220.348389,1719.683838
	C3224.220459,1723.219116 3228.869873,1726.172485 3233.623535,1728.415039
	C3242.634521,1732.665894 3252.046387,1736.056885 3261.170654,1740.079956
	C3277.594238,1747.321289 3294.686279,1753.453125 3310.148926,1762.385864
	C3347.320312,1783.859497 3360.936523,1826.092407 3345.260986,1866.127808
	C3339.695068,1880.343018 3330.193359,1891.141724 3317.555908,1899.266968
	C3307.401367,1905.796021 3296.342773,1910.383667 3284.518311,1912.988403
	C3235.785400,1923.723389 3188.095703,1920.654785 3140.545654,1902.411987
	C3139.877930,1883.312622 3146.891357,1866.015869 3149.933350,1847.172852
	C3163.112793,1848.118042 3173.537842,1854.819092 3185.130615,1856.914307
	C3196.251709,1858.924072 3207.392090,1860.826660 3220.424316,1862.900879
z"/>
<path fill="#0769C7" opacity="1.000000" stroke="none"
	d="
M3409.066406,1759.993652
	C3409.066895,1688.749634 3409.066895,1619.503906 3409.066895,1550.707520
	C3421.457520,1544.325073 3441.239990,1540.415161 3473.446777,1537.715698
	C3477.530029,1540.378784 3476.455078,1544.672485 3476.483154,1548.432739
	C3476.613037,1565.750610 3476.477783,1583.070435 3476.573242,1600.388794
	C3476.609375,1606.941162 3477.010498,1613.491577 3477.282227,1621.074707
	C3482.469727,1621.909424 3486.855957,1623.183594 3491.254639,1623.227051
	C3513.234131,1623.444946 3535.217285,1623.296265 3557.198730,1623.375366
	C3563.779541,1623.399048 3570.359131,1623.741943 3577.864502,1623.966064
	C3580.418945,1642.429199 3579.609863,1659.964722 3578.538330,1678.496826
	C3566.369385,1680.859863 3555.116211,1679.521729 3543.991211,1679.764771
	C3533.338623,1679.997559 3522.676270,1679.734619 3512.019531,1679.837036
	C3500.767822,1679.945068 3489.466553,1679.272949 3477.842041,1680.585571
	C3477.346924,1685.449219 3476.615967,1689.342407 3476.606689,1693.237305
	C3476.521729,1729.207031 3476.293701,1765.180298 3476.739258,1801.144775
	C3476.862305,1811.044678 3478.202148,1821.140015 3480.566162,1830.756470
	C3485.106934,1849.226685 3496.934570,1858.841064 3516.075684,1860.411499
	C3529.380127,1861.503418 3542.701904,1861.185913 3555.719482,1857.451294
	C3562.734619,1855.438599 3569.797119,1853.589355 3578.019043,1851.343872
	C3584.818359,1867.438232 3586.489014,1884.455078 3589.891357,1902.292236
	C3577.851318,1910.191284 3564.144043,1912.923096 3550.742432,1915.679077
	C3529.036133,1920.142700 3507.098633,1920.211792 3485.185303,1916.316650
	C3448.812988,1909.851440 3425.196045,1889.426514 3415.644775,1853.367676
	C3411.007324,1835.860107 3409.537598,1817.959961 3409.136230,1799.959351
	C3408.854248,1787.309326 3409.071777,1774.648193 3409.066406,1759.993652
z"/>
<path fill="#0D0C0C" opacity="1.000000" stroke="none"
	d="
M2191.694824,1839.990601
	C2191.695068,1722.167114 2191.695068,1606.341797 2191.695068,1489.552612
	C2203.721924,1487.288818 2214.604492,1485.240479 2226.659912,1482.971313
	C2229.071777,1493.990845 2227.665771,1503.888794 2227.906982,1513.637329
	C2228.153809,1523.625122 2227.961426,1533.623779 2227.961426,1543.617676
	C2227.961426,1552.945312 2227.961426,1562.273071 2227.961426,1571.600708
	C2227.961426,1581.594604 2227.961426,1591.588501 2227.961426,1601.582397
	C2227.961426,1611.464478 2227.961426,1621.346558 2227.961426,1632.631226
	C2233.914551,1631.234863 2238.335449,1630.341553 2242.676758,1629.156616
	C2272.580322,1620.994507 2302.685547,1617.490601 2333.524414,1623.650146
	C2372.733643,1631.481445 2397.329346,1654.677246 2407.709961,1693.058228
	C2412.612305,1711.184570 2413.970703,1729.858276 2414.094727,1748.503418
	C2414.426514,1798.470825 2414.243652,1848.441895 2414.151123,1898.411377
	C2414.144043,1902.267578 2413.240479,1906.122192 2412.672119,1910.623291
	C2401.411133,1910.623291 2390.916992,1910.623291 2379.148438,1910.623291
	C2378.677490,1905.213013 2377.853760,1900.069214 2377.841064,1894.923218
	C2377.735840,1852.282715 2377.966797,1809.640747 2377.694824,1767.001709
	C2377.571777,1747.711182 2377.539551,1728.339233 2372.743652,1709.416382
	C2371.927246,1706.194824 2371.312988,1702.909790 2370.298340,1699.752563
	C2361.888428,1673.586060 2343.983887,1659.149902 2316.678467,1655.820557
	C2286.987793,1652.200439 2258.459229,1656.971069 2229.113770,1666.399292
	C2228.722656,1672.340454 2228.017822,1678.121094 2228.011475,1683.902344
	C2227.934326,1752.527222 2227.980957,1821.152222 2227.929688,1889.777100
	C2227.924805,1896.290771 2227.475098,1902.804199 2227.186768,1910.534424
	C2215.125244,1911.748779 2204.130127,1912.086060 2191.694580,1910.062622
	C2191.694580,1887.180542 2191.694580,1864.584595 2191.694824,1839.990601
z"/>
<path fill="#0C0909" opacity="1.000000" stroke="none"
	d="
M1742.038818,1916.428101
	C1729.151855,1914.428101 1717.692261,1913.644409 1706.975830,1910.403687
	C1663.983032,1897.401733 1636.647461,1868.506958 1625.475830,1825.226807
	C1616.536743,1790.595825 1615.984863,1755.419067 1624.014893,1720.442139
	C1628.834961,1699.447510 1638.259521,1680.447388 1651.572998,1663.438354
	C1689.916016,1614.451294 1755.937378,1610.577637 1797.821411,1631.665161
	C1819.439453,1642.549561 1835.107910,1659.200928 1844.572021,1681.525391
	C1856.801147,1710.371948 1859.531982,1740.577881 1857.067749,1771.472778
	C1856.977417,1772.606445 1855.879761,1773.659668 1854.479004,1776.091919
	C1833.422363,1776.091919 1811.570557,1776.091797 1789.718628,1776.091797
	C1767.754028,1776.091797 1745.788818,1775.992920 1723.824951,1776.119751
	C1702.104370,1776.245361 1680.342773,1775.509033 1657.522705,1776.698608
	C1658.285278,1805.705444 1663.761963,1831.110352 1680.703857,1852.997192
	C1692.204590,1867.854492 1707.923706,1876.182983 1726.001099,1880.004028
	C1756.572754,1886.465942 1786.794434,1885.276733 1816.433716,1874.758789
	C1820.708252,1873.242188 1825.035767,1871.874634 1830.481323,1870.056641
	C1833.529053,1880.335815 1836.653076,1889.531616 1836.502197,1900.525391
	C1807.305298,1915.863525 1775.874146,1917.919189 1742.038818,1916.428101
M1659.847046,1732.165283
	C1659.847046,1736.011963 1659.847046,1739.858643 1659.847046,1743.204834
	C1661.026123,1744.108765 1661.515625,1744.789917 1662.090942,1744.872437
	C1664.685181,1745.244385 1667.304199,1745.679443 1669.913696,1745.675659
	C1718.566895,1745.604370 1767.220215,1745.476074 1815.873291,1745.331421
	C1816.477295,1745.329590 1817.142090,1745.058960 1817.666748,1744.733643
	C1818.220093,1744.390503 1818.639038,1743.831055 1819.088379,1743.393555
	C1820.357910,1721.452026 1815.523438,1700.984253 1805.146362,1684.447754
	C1795.513794,1669.097656 1782.172852,1659.045898 1764.387573,1654.532715
	C1728.581299,1645.446167 1691.821167,1661.106689 1672.946655,1695.214355
	C1667.234863,1705.535522 1664.436279,1717.468994 1659.847046,1732.165283
z"/>
<path fill="#0A0808" opacity="1.000000" stroke="none"
	d="
M2803.895996,1793.014893
	C2802.218262,1767.953247 2802.170898,1744.713867 2808.056152,1721.871338
	C2814.470947,1696.976196 2825.688477,1674.704346 2843.704834,1656.002319
	C2894.842041,1602.918579 2995.533936,1605.300781 3039.999512,1679.327515
	C3059.915283,1712.483154 3065.687256,1748.851929 3062.486572,1786.845337
	C3060.805908,1806.799194 3056.364990,1826.200806 3047.839111,1844.532227
	C3024.954346,1893.736816 2977.988037,1921.093628 2923.839355,1917.861450
	C2876.032227,1915.007568 2826.237061,1885.090698 2808.442383,1818.255615
	C2806.397705,1810.576050 2805.473389,1802.598145 2803.895996,1793.014893
M2951.134521,1883.303223
	C2969.931396,1879.222168 2985.908936,1870.382324 2998.316650,1855.456909
	C3008.715088,1842.948608 3015.469238,1828.589111 3019.570068,1812.981079
	C3025.752197,1789.449219 3025.902344,1765.465820 3022.804199,1741.603882
	C3020.391846,1723.026733 3014.512695,1705.325317 3003.553223,1689.702881
	C2991.669922,1672.763672 2976.295898,1660.858398 2955.879150,1655.893677
	C2914.005615,1645.711304 2870.427734,1661.930786 2851.197021,1710.202148
	C2845.698486,1724.004395 2842.879639,1738.308350 2841.581543,1752.853760
	C2838.937256,1782.483887 2842.073486,1811.390015 2856.002197,1838.255859
	C2868.334229,1862.041626 2887.327393,1878.009766 2913.918945,1882.864868
	C2924.876221,1884.865479 2936.437500,1883.560059 2951.134521,1883.303223
z"/>
<path fill="#0C0B0B" opacity="1.000000" stroke="none"
	d="
M2505.379883,1787.999023
	C2505.380127,1736.711182 2505.380127,1687.423340 2505.380127,1637.772217
	C2509.566650,1636.034912 2513.065186,1634.035767 2516.827881,1633.107422
	C2550.572021,1624.781860 2584.712158,1619.128662 2619.601562,1620.681885
	C2631.517334,1621.212280 2643.648193,1622.383545 2655.167969,1625.292725
	C2688.217529,1633.639038 2709.500977,1655.103882 2719.635986,1687.403931
	C2724.834473,1703.971802 2727.810303,1721.111572 2727.889160,1738.515747
	C2728.137207,1793.155762 2728.083008,1847.797363 2728.067383,1902.438354
	C2728.066650,1904.958130 2727.306885,1907.477783 2726.799072,1910.629639
	C2715.726807,1910.629639 2705.209229,1910.629639 2693.221924,1910.629639
	C2692.759033,1906.130737 2691.933594,1901.791016 2691.924316,1897.449463
	C2691.827881,1852.803467 2692.182861,1808.153564 2691.691650,1763.512695
	C2691.516113,1747.588013 2689.864258,1731.625610 2687.928955,1715.797363
	C2686.973633,1707.986816 2684.468994,1700.195679 2681.572754,1692.825317
	C2673.622559,1672.593384 2658.361084,1660.033569 2637.158691,1656.845093
	C2606.007568,1652.160156 2574.887207,1653.686523 2544.256104,1661.354980
	C2540.288086,1668.936523 2541.829346,1676.370972 2541.815918,1683.482788
	C2541.684570,1752.117798 2541.754395,1820.753174 2541.709473,1889.388428
	C2541.705078,1895.961914 2541.312500,1902.535156 2541.066650,1910.149048
	C2529.286865,1912.073975 2518.417480,1911.951416 2508.007812,1910.411987
	C2506.949463,1908.248169 2505.886963,1907.084351 2505.879639,1905.914307
	C2505.650635,1867.276245 2505.522705,1828.637695 2505.379883,1787.999023
z"/>
<path fill="#0769C7" opacity="1.000000" stroke="none"
	d="
M3659.189209,1632.009521
	C3683.776123,1624.565186 3707.231201,1620.111816 3731.202148,1617.917358
	C3758.741943,1615.396240 3785.686279,1618.488647 3812.376709,1624.977417
	C3814.238037,1625.429688 3815.893311,1626.728027 3818.771240,1628.215210
	C3816.668701,1646.230103 3813.178711,1664.104736 3807.448975,1682.835693
	C3775.564209,1674.954590 3744.289551,1671.072876 3711.631592,1681.130005
	C3710.682373,1700.991699 3711.258789,1720.193970 3711.157959,1739.368164
	C3711.060059,1758.011963 3711.136475,1776.656494 3711.136475,1795.300781
	C3711.136475,1814.610962 3711.143311,1833.921021 3711.135010,1853.231201
	C3711.126953,1871.776855 3711.103516,1890.322632 3711.085938,1909.857544
	C3688.861816,1913.969727 3667.842041,1910.591675 3646.055664,1912.101929
	C3645.133545,1907.847534 3643.895508,1904.790771 3643.891846,1901.732300
	C3643.783936,1816.501587 3643.791992,1731.270874 3643.835449,1646.040039
	C3643.836670,1643.426636 3644.412598,1640.813599 3644.781982,1637.675659
	C3649.124268,1635.889893 3653.357910,1634.148682 3659.189209,1632.009521
z"/>
<path fill="#0C0909" opacity="1.000000" stroke="none"
	d="
M1439.419678,1888.432129
	C1425.118652,1868.538940 1423.057373,1846.553223 1420.821167,1824.666382
	C1420.213379,1818.718018 1420.264404,1812.687256 1420.261963,1806.694336
	C1420.227295,1722.744629 1420.235474,1638.795044 1420.233276,1554.845337
	C1420.233154,1551.541138 1420.233276,1548.236938 1420.233276,1544.470337
	C1431.372192,1538.448486 1443.234619,1538.645996 1456.037598,1536.222900
	C1457.036865,1566.017334 1455.915283,1594.505371 1456.711914,1622.397827
	C1462.624512,1627.061890 1468.827026,1625.579956 1474.649780,1625.607910
	C1505.282471,1625.755005 1535.916260,1625.676758 1566.998901,1625.676758
	C1572.353882,1635.401489 1569.987671,1645.031006 1569.113281,1655.524170
	C1532.065674,1657.143433 1495.573120,1654.973022 1458.186646,1656.820801
	C1457.547485,1661.236938 1456.536499,1664.993286 1456.530640,1668.751343
	C1456.456909,1716.055786 1456.297852,1763.362549 1456.731323,1810.663452
	C1456.834351,1821.907837 1458.158813,1833.318604 1460.467407,1844.328857
	C1465.674194,1869.163330 1479.104370,1880.827148 1504.398926,1883.260132
	C1523.206299,1885.069092 1541.625977,1883.122803 1559.198608,1875.564697
	C1563.377197,1873.767578 1567.644165,1872.176025 1573.043701,1870.021973
	C1576.752686,1880.072021 1580.544067,1888.991089 1581.104004,1899.284424
	C1569.615234,1907.279053 1556.806763,1910.705444 1543.926758,1913.741943
	C1524.187622,1918.395386 1504.165771,1918.005127 1484.397095,1914.641113
	C1466.945679,1911.671631 1451.476074,1904.097900 1439.419678,1888.432129
z"/>
<path fill="#0A0808" opacity="1.000000" stroke="none"
	d="
M2099.589355,1624.184082
	C2109.389648,1627.028442 2117.533447,1629.620117 2126.254883,1632.395386
	C2125.652588,1644.009033 2121.662598,1653.526367 2118.167236,1663.188843
	C2104.738525,1660.140991 2092.023438,1656.734253 2079.109375,1654.457031
	C2063.244873,1651.659424 2047.331177,1652.493896 2031.495850,1655.728638
	C2008.792969,1660.366333 1991.132568,1672.210693 1978.745850,1691.782104
	C1976.267456,1695.697754 1973.845703,1699.757324 1972.160645,1704.050049
	C1955.943115,1745.364014 1955.130493,1787.243530 1970.208984,1828.799561
	C1980.238403,1856.439941 2001.507935,1872.919067 2029.769409,1879.893555
	C2056.919434,1886.593872 2083.870605,1885.252808 2110.247559,1875.549194
	C2114.462891,1873.998413 2118.638916,1872.340210 2123.372070,1870.524902
	C2128.945068,1880.498657 2129.426758,1890.419922 2131.945068,1900.249634
	C2117.864014,1909.798340 2101.958984,1912.556519 2086.482666,1914.808960
	C2063.411133,1918.166870 2040.110474,1918.307983 2017.075806,1912.660522
	C1981.286377,1903.885986 1955.115234,1883.330688 1938.729370,1850.263062
	C1924.767456,1822.086792 1920.576172,1791.970703 1921.726929,1761.055542
	C1922.571167,1738.380005 1926.232056,1716.057373 1935.760986,1695.106567
	C1957.740967,1646.780518 1995.247559,1621.625000 2048.313965,1619.951660
	C2064.971436,1619.426270 2081.601562,1620.014893 2099.589355,1624.184082
z"/>
<path fill="#1173CA" opacity="1.000000" stroke="none"
	d="
M4940.114258,1503.570557
	C4924.322266,1503.301880 4910.454102,1504.170654 4895.599121,1502.899292
	C4895.268066,1496.028809 4894.990234,1490.266846 4894.658691,1483.375366
	C4900.121094,1482.784790 4904.552246,1481.902954 4908.984863,1481.889893
	C4946.955078,1481.778198 4984.929688,1481.502686 5022.892578,1482.025269
	C5033.755859,1482.174683 5041.676270,1478.997925 5049.149902,1471.032715
	C5070.567871,1448.206055 5092.681641,1426.031372 5114.571289,1403.648926
	C5119.155273,1398.962036 5123.951660,1394.483765 5129.276367,1389.299927
	C5134.404785,1394.083374 5138.681152,1398.072021 5144.003906,1403.036865
	C5128.749023,1421.497437 5111.646484,1437.223511 5095.650391,1453.913452
	C5079.557617,1470.704468 5062.640625,1486.704956 5045.559082,1503.570679
	C5011.341309,1503.570679 4976.714844,1503.570679 4940.114258,1503.570557
z"/>
<path fill="#1173CA" opacity="1.000000" stroke="none"
	d="
M4763.399414,1627.168945
	C4764.095703,1620.998169 4764.654297,1616.504639 4765.270996,1611.538818
	C4771.913574,1611.538818 4777.618164,1611.538818 4783.572754,1611.538818
	C4784.322754,1614.303833 4785.364746,1616.158569 4785.222168,1617.917603
	C4783.022461,1645.110352 4780.676270,1672.291382 4778.346680,1699.473511
	C4777.323730,1711.407471 4776.052246,1723.324707 4775.293945,1735.275024
	C4774.842285,1742.390869 4772.315430,1747.775146 4766.424805,1752.155762
	C4735.989746,1774.790161 4705.750488,1797.687744 4675.424316,1820.469238
	C4671.181152,1823.657104 4666.836914,1826.709839 4662.502930,1829.851196
	C4655.018555,1827.637451 4652.414551,1821.584351 4649.202637,1814.590942
	C4653.040039,1811.249512 4656.731934,1807.632812 4660.820312,1804.540283
	C4687.888184,1784.067993 4714.863281,1763.464722 4742.274902,1743.460205
	C4750.525391,1737.438843 4754.438477,1730.527344 4755.186035,1720.315552
	C4757.420410,1689.792236 4760.507324,1659.331543 4763.399414,1627.168945
z"/>
<path fill="#FAFCFE" opacity="1.000000" stroke="none"
	d="
M4874.676758,1723.602783
	C4868.885254,1700.871338 4869.085938,1679.864990 4876.203125,1659.175659
	C4892.043457,1613.129272 4938.012207,1583.779053 4986.803711,1588.388184
	C5034.884277,1592.930054 5073.958008,1631.386841 5081.018555,1679.789795
	C5088.027832,1727.841797 5059.221191,1778.201050 5008.631836,1794.721436
	C4959.354004,1810.813721 4905.415527,1788.216187 4881.837402,1741.814819
	C4879.146484,1736.519531 4877.396973,1730.745605 4874.676758,1723.602783
M4948.963867,1733.611206
	C4955.741211,1736.166626 4962.322754,1739.862793 4969.332031,1741.066406
	C4991.513184,1744.875000 5012.172363,1732.785889 5020.655273,1712.031860
	C5029.048340,1691.497314 5022.478027,1668.214478 5004.563965,1655.012573
	C4986.865723,1641.969604 4962.265137,1642.765015 4945.345215,1656.927490
	C4928.410645,1671.102295 4922.896973,1695.268677 4933.057617,1714.786133
	C4936.344727,1721.101074 4941.970215,1726.198730 4948.963867,1733.611206
z"/>
<path fill="#FAFCFE" opacity="1.000000" stroke="none"
	d="
M4681.694824,1901.744873
	C4704.840332,1900.681274 4724.099609,1906.722290 4740.601074,1920.787964
	C4766.852539,1943.164062 4775.829590,1979.980835 4762.564941,2011.673218
	C4750.011719,2041.664551 4719.180664,2063.956787 4680.873047,2060.509277
	C4647.887695,2057.541016 4620.427734,2033.128174 4611.295410,2000.466431
	C4602.199219,1967.933228 4618.284180,1919.513794 4666.383301,1904.757446
	C4670.819824,1903.396240 4675.516113,1902.880005 4681.694824,1901.744873
z"/>
<path fill="#FAFCFE" opacity="1.000000" stroke="none"
	d="
M5269.007812,1331.079590
	C5278.323730,1329.379395 5286.211914,1327.093506 5293.985352,1327.435181
	C5320.752441,1328.611816 5342.421387,1351.315918 5343.550781,1378.303711
	C5344.671875,1405.093384 5324.532227,1429.277100 5298.019531,1432.976440
	C5272.445801,1436.545044 5249.619141,1423.725830 5240.025391,1400.407837
	C5230.849609,1378.107178 5237.634277,1353.208740 5257.283203,1337.832520
	C5260.393555,1335.398804 5264.098633,1333.724121 5269.007812,1331.079590
z"/>
<path fill="#FAFCFE" opacity="1.000000" stroke="none"
	d="
M4667.123047,1495.803467
	C4660.653809,1481.836182 4659.496582,1469.024292 4663.854980,1455.629639
	C4672.517090,1429.005615 4698.886719,1413.902710 4727.045410,1419.764282
	C4753.052734,1425.177856 4770.754395,1450.174683 4768.124023,1477.771484
	C4765.584473,1504.413208 4742.625977,1524.929932 4715.174316,1525.005371
	C4693.919434,1525.063843 4678.361328,1515.341919 4667.123047,1495.803467
z"/>
<path fill="#F2F5FB" opacity="1.000000" stroke="none"
	d="
M5120.002930,2006.092651
	C5126.409668,2007.904419 5131.934082,2008.843140 5136.166504,2011.696899
	C5146.059570,2018.367554 5149.843750,2030.983765 5146.219727,2041.672852
	C5142.109863,2053.793213 5131.485840,2061.186768 5118.819824,2060.740234
	C5107.003906,2060.323486 5097.237305,2052.903076 5093.510742,2041.510498
	C5089.983887,2030.729736 5093.859375,2018.162842 5103.799316,2011.587524
	C5108.059082,2008.769775 5113.583496,2007.864258 5120.002930,2006.092651
z"/>
<path fill="#F2F5FB" opacity="1.000000" stroke="none"
	d="
M5327.929688,1849.095459
	C5321.331543,1850.424561 5315.975098,1852.119507 5310.946289,1851.428833
	C5298.955566,1849.781616 5289.392090,1838.738037 5288.330078,1826.800537
	C5287.316406,1815.405518 5293.867188,1804.518433 5304.720703,1799.559692
	C5315.528809,1794.621948 5327.559082,1797.005859 5335.776367,1805.714233
	C5344.728027,1815.200928 5346.288574,1827.728394 5339.142090,1838.692627
	C5336.688965,1842.455811 5332.640137,1845.178467 5327.929688,1849.095459
z"/>
<path fill="#F2F5FB" opacity="1.000000" stroke="none"
	d="
M3948.403076,1683.798340
	C3961.607666,1674.687988 3974.993408,1671.488159 3989.307373,1672.636353
	C4010.060791,1674.301025 4025.832520,1684.132324 4035.236084,1702.939087
	C4040.286865,1713.040161 4043.368896,1723.815430 4043.032715,1736.244873
	C4040.347900,1737.155396 4038.026367,1738.623047 4035.700928,1738.629272
	C3999.188721,1738.728027 3962.676270,1738.650024 3926.164062,1738.543823
	C3924.905273,1738.540161 3923.648682,1737.820801 3921.801514,1737.254150
	C3918.250732,1729.258789 3923.151367,1722.036377 3925.455322,1714.905029
	C3929.396729,1702.705322 3936.657959,1692.377930 3948.403076,1683.798340
z"/>
<path fill="#FAFCFE" opacity="1.000000" stroke="none"
	d="
M4256.610352,1861.048828
	C4233.243652,1851.523315 4226.694824,1841.639771 4227.665527,1820.244995
	C4228.223633,1807.925049 4233.646484,1798.507324 4244.157227,1792.535645
	C4249.838867,1789.307373 4256.194336,1786.507080 4262.572754,1785.402100
	C4282.297852,1781.985474 4302.153809,1781.810425 4321.845703,1786.152588
	C4323.684082,1786.557861 4325.324219,1787.865112 4326.926270,1788.686768
	C4329.414551,1805.522339 4329.359375,1844.359009 4326.862305,1859.882446
	C4309.862793,1865.127686 4280.883789,1865.809082 4256.610352,1861.048828
z"/>
<path fill="#FAFCFE" opacity="1.000000" stroke="none"
	d="
M1660.075195,1730.414673
	C1664.436279,1717.468994 1667.234863,1705.535522 1672.946655,1695.214355
	C1691.821167,1661.106689 1728.581299,1645.446167 1764.387573,1654.532715
	C1782.172852,1659.045898 1795.513794,1669.097656 1805.146362,1684.447754
	C1815.523438,1700.984253 1820.357910,1721.452026 1819.088379,1743.393555
	C1818.639038,1743.831055 1818.220093,1744.390503 1817.666748,1744.733643
	C1817.142090,1745.058960 1816.477295,1745.329590 1815.873291,1745.331421
	C1767.220215,1745.476074 1718.566895,1745.604370 1669.913696,1745.675659
	C1667.304199,1745.679443 1664.685181,1745.244385 1662.090942,1744.872437
	C1661.515625,1744.789917 1661.026123,1744.108765 1659.847046,1743.204834
	C1659.847046,1739.858643 1659.847046,1736.011963 1660.075195,1730.414673
z"/>
<path fill="#FBFCFC" opacity="1.000000" stroke="none"
	d="
M2949.429199,1883.530762
	C2936.437500,1883.560059 2924.876221,1884.865479 2913.918945,1882.864868
	C2887.327393,1878.009766 2868.334229,1862.041626 2856.002197,1838.255859
	C2842.073486,1811.390015 2838.937256,1782.483887 2841.581543,1752.853760
	C2842.879639,1738.308350 2845.698486,1724.004395 2851.197021,1710.202148
	C2870.427734,1661.930786 2914.005615,1645.711304 2955.879150,1655.893677
	C2976.295898,1660.858398 2991.669922,1672.763672 3003.553223,1689.702881
	C3014.512695,1705.325317 3020.391846,1723.026733 3022.804199,1741.603882
	C3025.902344,1765.465820 3025.752197,1789.449219 3019.570068,1812.981079
	C3015.469238,1828.589111 3008.715088,1842.948608 2998.316650,1855.456909
	C2985.908936,1870.382324 2969.931396,1879.222168 2949.429199,1883.530762
z"/>
<path fill="#0769C7" opacity="1.000000" stroke="none"
	d="
M4947.745117,1732.732300
	C4941.970215,1726.198730 4936.344727,1721.101074 4933.057617,1714.786133
	C4922.896973,1695.268677 4928.410645,1671.102295 4945.345215,1656.927490
	C4962.265137,1642.765015 4986.865723,1641.969604 5004.563965,1655.012573
	C5022.478027,1668.214478 5029.048340,1691.497314 5020.655273,1712.031860
	C5012.172363,1732.785889 4991.513184,1744.875000 4969.332031,1741.066406
	C4962.322754,1739.862793 4955.741211,1736.166626 4947.745117,1732.732300
z"/>
</svg>
