<?xml version="1.0" standalone="no"?>
<!DOCTYPE svg PUBLIC "-//W3C//DTD SVG 20010904//EN"
 "http://www.w3.org/TR/2001/REC-SVG-20010904/DTD/svg10.dtd">
<svg version="1.0" xmlns="http://www.w3.org/2000/svg"
 width="6946.000000pt" height="3473.000000pt" viewBox="0 0 6946.000000 3473.000000"
 preserveAspectRatio="xMidYMid meet">

<g transform="translate(0.000000,3473.000000) scale(0.100000,-0.100000)"
fill="#000" stroke="none">
<path fill="#0055d4" d="M52655 21989 c-33 -5 -98 -20 -145 -35 -277 -86 -494 -274 -622 -540
-78 -163 -92 -228 -92 -439 -1 -209 12 -271 91 -438 l47 -98 -673 -673 -674
-674 -76 50 c-213 140 -480 225 -761 244 -325 22 -720 -99 -992 -302 -59 -43
-92 -62 -101 -57 -35 21 -667 566 -667 575 0 6 16 52 35 103 102 274 83 569
-54 832 -281 536 -957 710 -1473 378 -160 -103 -320 -300 -389 -480 -54 -139
-72 -249 -66 -410 10 -281 103 -494 298 -685 148 -145 325 -238 539 -282 232
-49 523 5 720 133 33 21 63 39 66 39 4 0 619 -518 678 -571 6 -5 -11 -48 -41
-106 -107 -204 -161 -411 -170 -649 -9 -237 21 -418 106 -635 34 -87 119 -244
174 -322 10 -15 -40 -69 -438 -467 l-449 -449 -31 20 c-67 44 -205 108 -297
138 -135 43 -250 61 -388 61 -627 0 -1169 -448 -1275 -1054 -19 -113 -20 -337
0 -449 46 -266 162 -485 359 -683 195 -194 389 -298 671 -360 110 -23 358 -24
475 -1 143 28 304 88 415 154 331 199 563 544 621 925 19 123 14 335 -10 447
-31 141 -103 316 -174 423 l-26 39 450 449 449 449 70 -45 c149 -97 355 -181
539 -219 174 -35 415 -36 596 -1 41 8 77 12 79 10 11 -10 551 -1299 551 -1315
0 -11 -4 -19 -9 -19 -16 0 -130 -149 -160 -209 -73 -143 -100 -338 -68 -487
59 -277 247 -494 500 -579 167 -55 334 -56 496 0 122 41 198 90 297 189 76 77
99 107 138 186 65 133 80 200 80 345 0 145 -15 212 -80 345 -40 80 -61 108
-138 185 -50 49 -117 105 -149 124 -111 65 -280 111 -411 111 l-42 0 -272 643
c-149 353 -274 649 -277 658 -4 12 18 33 82 80 115 83 272 242 350 354 34 50
68 97 75 106 12 15 76 -7 653 -230 l640 -247 7 -96 c19 -270 177 -503 423
-623 195 -96 393 -108 596 -36 115 41 184 86 285 186 77 77 98 105 138 185 66
137 81 199 80 355 -1 118 -4 139 -33 226 -75 229 -260 410 -500 488 -268 87
-560 18 -762 -181 l-59 -58 -611 235 c-336 130 -626 242 -644 249 -33 14 -33
14 -24 63 70 370 -12 786 -216 1100 l-57 86 674 674 674 674 95 -46 c51 -25
139 -57 194 -72 86 -22 120 -26 245 -26 123 0 160 4 241 26 358 94 622 335
734 669 103 309 53 650 -134 913 -223 314 -610 479 -996 424z m284 -484 c185
-44 347 -204 396 -390 19 -74 19 -203 0 -275 -73 -274 -350 -452 -620 -397
-117 24 -197 67 -280 151 -82 83 -118 145 -145 252 -23 91 -25 154 -6 245 52
245 273 426 521 428 39 0 99 -6 134 -14z m-5794 -905 c47 -7 98 -24 154 -51
332 -163 408 -590 152 -861 -72 -77 -179 -138 -278 -158 -78 -17 -213 -8 -286
18 -252 90 -406 359 -352 617 52 251 262 430 520 444 11 0 52 -4 90 -9z m2750
-1715 c386 -79 708 -389 812 -780 24 -89 27 -118 27 -265 0 -146 -3 -176 -27
-262 -118 -440 -491 -759 -931 -797 -311 -27 -602 74 -827 286 -97 92 -161
180 -224 308 -111 226 -138 447 -85 697 93 432 456 765 903 828 85 12 256 5
352 -15z m3304 -2099 c102 -52 157 -155 149 -275 -8 -103 -59 -181 -150 -227
-185 -94 -401 42 -401 251 0 117 84 235 192 270 62 20 148 12 210 -19z m-6231
-1032 c159 -33 285 -103 407 -228 407 -417 247 -1117 -302 -1316 -464 -167
-966 124 -1058 615 -79 417 202 840 619 930 85 19 242 18 334 -1z m4271 -1059
c50 -25 99 -73 128 -128 13 -24 18 -55 18 -122 0 -80 -3 -95 -27 -137 -95
-161 -291 -195 -426 -73 -242 218 18 607 307 460z"/>
<path fill="#0055d4" d="M49600 18310 c-152 -27 -291 -131 -355 -266 -126 -266 23 -584 309
-660 115 -31 267 -11 368 49 67 39 155 138 191 214 31 65 32 73 32 193 0 123
-1 126 -36 201 -68 141 -207 245 -359 269 -72 11 -86 11 -150 0z"/>
<path fill="#0055d4" d="M50752 20415 l-454 -465 -714 0 -714 0 0 -95 0 -95 759 0 760 0 481
492 480 492 -67 68 c-37 37 -70 68 -73 68 -3 0 -209 -209 -458 -465z"/>
<path fill="#fff" d="M22006 19909 c-82 -15 -155 -30 -163 -33 -11 -5 -13 -362 -13 -2106
l0 -2100 180 0 180 0 2 1221 3 1222 40 14 c68 24 224 61 355 84 172 31 411 31
555 1 248 -53 396 -190 478 -443 66 -201 77 -393 77 -1346 l0 -753 175 0 176
0 -4 953 c-3 929 -4 955 -25 1067 -53 275 -122 426 -261 573 -197 206 -455
297 -843 297 -217 0 -450 -39 -652 -109 -33 -12 -63 -21 -68 -21 -4 0 -8 340
-8 755 0 713 -1 755 -17 754 -10 -1 -85 -14 -167 -30z"/>
<path fill="#fff" d="M14282 19377 l-163 -31 4 -1440 c3 -1296 5 -1452 20 -1546 35 -216
79 -339 162 -455 92 -130 221 -212 410 -262 92 -24 116 -26 310 -27 167 -1
227 3 295 17 159 34 410 131 410 159 0 7 -18 74 -40 148 -22 74 -40 135 -40
137 0 1 -33 -14 -74 -33 -131 -60 -243 -92 -366 -105 -185 -18 -365 3 -468 55
-137 69 -225 239 -252 488 -6 60 -10 415 -10 918 l0 820 565 0 565 0 0 145 0
145 -565 0 -565 0 0 450 c0 422 -1 450 -17 449 -10 -1 -91 -15 -181 -32z"/>
<path fill="#0055d4" d="M34340 19354 c-173 -29 -319 -53 -323 -54 -4 0 -6 -615 -4 -1367 3
-1344 4 -1370 25 -1498 28 -174 54 -262 107 -370 133 -270 370 -415 742 -456
131 -14 372 -7 498 16 160 28 418 112 423 137 1 8 -20 122 -48 254 -27 133
-50 244 -50 247 0 3 -33 -5 -72 -19 -276 -95 -559 -110 -715 -39 -108 49 -172
134 -216 287 -20 71 -21 95 -24 786 l-4 712 511 0 510 0 0 275 0 275 -510 0
-510 0 0 435 c0 342 -3 435 -12 434 -7 -1 -155 -25 -328 -55z"/>
<path fill="#0055d4" d="M47566 18623 c-3 -26 -29 -302 -56 -613 -28 -311 -53 -570 -55 -576
-2 -7 -238 -188 -524 -404 -287 -215 -521 -396 -521 -401 0 -20 105 -149 118
-144 10 3 1083 807 1114 834 6 5 130 1333 125 1337 -1 1 -45 5 -98 9 l-97 7
-6 -49z"/>
<path fill="#0055d4" d="M32235 18599 c-271 -33 -500 -132 -650 -284 -152 -151 -215 -316
-215 -560 0 -151 20 -247 76 -364 37 -75 60 -108 122 -170 42 -43 106 -97 141
-121 86 -57 294 -156 466 -220 312 -116 497 -225 546 -322 63 -124 31 -278
-72 -344 -84 -53 -172 -68 -409 -68 -286 0 -440 29 -732 138 l-87 33 -10 -46
c-37 -159 -101 -487 -97 -497 10 -27 352 -124 526 -151 165 -25 590 -25 748 0
290 46 500 141 642 293 149 158 210 376 180 644 -42 385 -251 577 -871 804
-402 148 -513 239 -513 421 0 112 46 180 157 230 190 87 581 69 895 -43 45
-16 82 -29 82 -28 0 1 27 118 59 261 33 143 56 263 53 267 -20 19 -314 90
-476 114 -125 18 -453 26 -561 13z"/>
<path fill="#0055d4" d="M39550 18594 c-109 -17 -298 -77 -391 -125 -157 -79 -337 -230 -444
-374 -130 -175 -227 -405 -270 -645 -26 -143 -31 -471 -11 -630 94 -717 534
-1140 1261 -1211 299 -29 722 20 1018 118 86 28 107 39 107 54 0 11 -18 132
-40 269 -22 137 -40 252 -40 255 0 2 -23 -4 -50 -15 -73 -29 -260 -77 -375
-97 -146 -24 -489 -25 -604 0 -176 38 -295 100 -404 210 -89 90 -157 226 -187
374 -11 55 -20 108 -20 117 0 15 88 16 950 16 l949 0 7 36 c3 19 4 140 1 267
-4 176 -10 262 -27 357 -100 568 -409 907 -920 1011 -132 27 -384 33 -510 13z
m351 -548 c102 -22 184 -68 264 -150 106 -107 168 -254 182 -428 l6 -78 -623
0 -623 0 7 51 c10 71 52 202 91 280 84 166 235 286 408 324 82 18 206 18 288
1z"/>
<path fill="#0055d4" d="M42413 18599 c-184 -16 -580 -94 -606 -118 -6 -6 36 -312 68 -497 l5
-31 82 24 c194 56 481 89 693 80 199 -9 307 -48 406 -146 97 -98 136 -209 146
-415 l6 -129 -24 7 c-13 3 -76 16 -139 28 -142 26 -478 31 -630 9 -382 -54
-649 -203 -791 -441 -139 -235 -143 -631 -8 -890 124 -238 342 -376 699 -442
101 -19 152 -22 415 -22 343 0 475 12 845 75 129 21 243 42 253 45 17 5 18 50
15 982 -4 1087 -2 1054 -74 1270 -139 422 -509 626 -1121 621 -81 -1 -189 -5
-240 -10z m686 -1663 c40 -9 82 -18 92 -21 18 -6 19 -24 19 -380 l0 -373 -27
-6 c-59 -13 -265 -26 -399 -26 -422 0 -595 122 -595 418 0 229 143 362 436
401 95 13 383 5 474 -13z"/>
<path fill="#0055d4" d="M37195 18590 c-55 -5 -147 -16 -205 -25 -115 -18 -445 -100 -555
-138 l-70 -24 -3 -1366 -2 -1367 330 0 330 0 2 1158 3 1157 110 24 c95 20 138
24 315 24 214 1 304 -11 480 -63 35 -11 65 -18 65 -17 1 1 27 123 58 272 40
196 52 272 44 277 -20 12 -216 56 -327 73 -124 19 -434 27 -575 15z"/>
<path fill="#fff" d="M17136 18554 c-247 -45 -487 -176 -651 -357 -128 -141 -253 -368
-309 -561 -114 -392 -89 -951 58 -1294 165 -384 461 -614 909 -704 98 -20 142
-23 362 -23 280 0 368 12 582 80 155 49 205 72 199 93 -3 9 -17 79 -33 155
-23 113 -30 136 -43 131 -187 -81 -337 -119 -521 -134 -391 -33 -702 43 -890
217 -180 168 -297 462 -311 783 l-3 75 1000 5 1000 5 3 175 c8 479 -111 846
-350 1076 -158 153 -340 241 -568 279 -117 18 -327 18 -434 -1z m421 -319
c238 -57 413 -231 502 -500 33 -102 59 -247 62 -350 l3 -70 -814 0 -814 0 3
50 c4 69 26 174 57 270 106 325 370 567 669 615 78 12 253 4 332 -15z"/>
<path fill="#fff" d="M20215 18556 c-188 -31 -371 -104 -519 -206 -95 -66 -241 -216 -307
-317 -215 -329 -300 -788 -233 -1263 88 -621 436 -1017 994 -1131 127 -27 392
-36 542 -19 212 23 538 118 538 157 0 22 -62 277 -69 285 -3 4 -44 -8 -91 -27
-218 -87 -425 -118 -652 -97 -170 16 -275 44 -393 102 -316 157 -470 429 -506
892 -20 246 11 526 78 713 115 321 326 512 638 581 109 24 420 24 552 1 74
-14 207 -55 294 -91 12 -6 24 21 61 146 l46 153 -52 23 c-64 30 -202 66 -326
88 -129 22 -487 28 -595 10z"/>
<path fill="#fff" d="M29075 18564 c-168 -26 -282 -62 -420 -132 -317 -163 -557 -481 -654
-870 -68 -271 -75 -583 -20 -871 107 -551 476 -951 986 -1066 106 -24 368 -30
485 -11 269 44 489 156 678 346 201 201 324 449 386 781 24 129 30 456 10 605
-81 618 -439 1057 -970 1190 -85 22 -129 26 -276 29 -96 2 -188 1 -205 -1z
m401 -344 c361 -92 601 -406 670 -872 22 -153 15 -490 -14 -623 -91 -417 -318
-685 -657 -776 -108 -29 -325 -32 -437 -6 -371 86 -617 383 -691 837 -45 272
-26 582 49 815 120 369 373 596 719 645 90 13 270 3 361 -20z"/>
<path fill="#fff" d="M25755 18553 c-142 -11 -259 -28 -390 -54 -169 -34 -339 -75 -372
-89 l-23 -10 0 -1365 0 -1365 180 0 180 0 2 1247 3 1247 30 8 c80 22 289 50
457 60 215 13 394 2 518 -32 257 -72 407 -267 464 -601 28 -168 36 -410 36
-1176 l0 -753 175 0 176 0 -4 943 c-3 1016 -2 991 -58 1212 -108 423 -394 670
-839 725 -76 9 -436 12 -535 3z"/>
</g>
</svg>
